<?xml version="1.0" encoding="utf-8"?>
<!-- Generator: Adobe Illustrator 16.0.0, SVG Export Plug-In . SVG Version: 6.00 Build 0)  -->
<!DOCTYPE svg PUBLIC "-//W3C//DTD SVG 1.1//EN" "http://www.w3.org/Graphics/SVG/1.1/DTD/svg11.dtd">
<svg version="1.1" id="Layer_1" xmlns="http://www.w3.org/2000/svg" xmlns:xlink="http://www.w3.org/1999/xlink" x="0px" y="0px"
	 width="16px" height="16px" viewBox="0 0 16 16" enable-background="new 0 0 16 16" xml:space="preserve">
<circle fill="#FFFFFF" cx="8" cy="8" r="7.917"/>
<path fill="none" stroke="#000000" stroke-width="0.186" stroke-linecap="round" stroke-linejoin="round" stroke-miterlimit="10" d="
	M9.515,7.14V7.137L9.522,7.13C9.526,7.13,9.51,7.14,9.515,7.14c-0.021,0.035-0.04,0.057-0.059,0.095
	C9.139,7.698,8.605,8.006,8.001,8.006c-0.006,0-0.011,0.004-0.016,0.004c0.02-0.037,0.04-0.065,0.058-0.104
	C8.36,7.443,8.909,7.14,9.515,7.14z M9.456,8.772c-0.33-0.481-0.888-0.775-1.472-0.769c0.021,0.036,0.041,0.073,0.059,0.111
	c0.33,0.483,0.888,0.774,1.472,0.77C9.493,8.847,9.475,8.809,9.456,8.772C9.418,8.715,9.475,8.809,9.456,8.772z M8.043,8.114
	C8.021,8.081,7.999,8.047,7.979,8.012C7.957,8.047,7.937,8.081,7.913,8.114C7.8,8.347,7.735,8.608,7.735,8.883
	c0,0.273,0.063,0.531,0.173,0.763c0.024,0.035,0.049,0.07,0.07,0.109C8,9.719,8.022,9.686,8.046,9.65
	c0.112-0.23,0.175-0.492,0.175-0.767C8.221,8.608,8.156,8.347,8.043,8.114z M7.908,6.119c0.024,0.035,0.049,0.083,0.07,0.121
	C8,6.203,8.023,6.154,8.048,6.119c0.111-0.23,0.173-0.489,0.173-0.762c0-0.277-0.064-0.537-0.178-0.77
	C8.021,4.555,7.999,4.506,7.979,4.471C7.958,4.506,7.937,4.554,7.913,4.587C7.8,4.82,7.735,5.081,7.735,5.357
	C7.735,5.63,7.798,5.889,7.908,6.119z M6.545,7.008c0.113-0.232,0.177-0.493,0.177-0.77c0-0.273-0.062-0.531-0.172-0.761
	C6.524,5.441,6.508,5.394,6.486,5.356C6.465,5.392,6.436,5.438,6.412,5.472C6.3,5.704,6.237,5.964,6.237,6.239
	c0,0.276,0.064,0.537,0.177,0.77c0.023,0.034,0.045,0.068,0.065,0.103C6.5,7.077,6.521,7.042,6.545,7.008z M6.545,7.008
	C6.526,7.046,6.507,7.083,6.486,7.12c0.59-0.009,1.108-0.308,1.422-0.761c0.02-0.041,0.041-0.08,0.063-0.119
	C7.378,6.25,6.856,6.551,6.545,7.008z M7.972,6.238C7.949,6.199,7.928,6.16,7.908,6.119C7.595,5.666,7.076,5.366,6.486,5.356
	C6.509,5.396,6.53,5.436,6.55,5.478C6.862,5.929,7.382,6.229,7.972,6.238z M8.043,4.587c0.317,0.465,0.88,0.771,1.485,0.771
	 M6.412,9C6.431,8.96,6.451,8.921,6.474,8.884c-0.006,0-0.011-0.001-0.017-0.001c-0.602,0-1.133,0.302-1.45,0.763
	c-0.02,0.039-0.042,0.08-0.063,0.119c0.005,0,0.01,0,0.016,0C5.563,9.766,6.094,9.461,6.412,9z M6.457,8.883
	c0.006,0,0.011,0,0.017,0C6.452,8.847,6.433,8.81,6.414,8.772C6.097,8.308,5.563,8.003,4.959,8.003c-0.006,0-0.011,0-0.016,0
	c0.021,0.036,0.04,0.072,0.059,0.111C5.319,8.579,5.852,8.883,6.457,8.883z M6.457,10.648c-0.293-0.402-0.915-0.883-1.536-0.883
	c-0.006,0,0.008,0,0.003,0C4.921,9.77,4.929,9.773,4.928,9.775c0.315,0.523,0.827,0.873,1.497,0.873c0.006,0-0.057,0-0.057,0H6.457z
	 M4.867,6.359c-0.111,0.23-0.173,0.488-0.173,0.762c0,0.276,0.064,0.537,0.177,0.769 M11.015,6.238
	c0.002-0.003,0.003-0.006,0.006-0.01c-0.302-0.514-0.856-0.86-1.492-0.87C9.55,5.397,9.571,5.436,9.591,5.478
	C9.904,5.929,10.424,6.229,11.015,6.238z M10.947,6.375c-0.11,0.23-0.172,0.48-0.172,0.753c0,0.276,0.065,0.533,0.179,0.765
	C10.977,7.928,11,7.96,11.02,7.994c0.021-0.034,0.043-0.07,0.064-0.103c0.114-0.233,0.175-0.478,0.175-0.754
	c0-0.321-0.063-0.633-0.238-0.898l0,0C10.987,6.3,10.961,6.336,10.947,6.375z M9.589,10.531C9.57,10.57,9.55,10.609,9.528,10.646
	c0.636-0.01,1.146-0.252,1.497-0.76c-0.002-0.002,0.064-0.082,0.064-0.084C10.497,9.811,9.901,10.076,9.589,10.531z M8.043,7.89
	c0.113-0.232,0.178-0.493,0.178-0.769c0-0.273-0.062-0.531-0.173-0.762C8.023,6.324,8.001,6.287,7.979,6.25
	c-0.021,0.037-0.046,0.074-0.07,0.109c-0.11,0.23-0.173,0.488-0.173,0.762c0,0.276,0.064,0.537,0.178,0.769
	c0.023,0.034,0.045,0.082,0.065,0.116C7.999,7.971,8.021,7.923,8.043,7.89z M4.943,9.766c0.11-0.23,0.236-0.6,0.236-0.873
	c0-0.277-0.064-0.543-0.178-0.774c-0.022-0.034-0.045-0.07-0.065-0.104C4.916,8.049,4.895,8.083,4.871,8.115 M4.871,8.114
	c-0.112,0.233-0.177,0.494-0.177,0.77c0,0.322,0.086,0.623,0.236,0.882 M7.913,4.587c0.019-0.038,0.044-0.081,0.065-0.117
	C7.387,4.48,6.859,4.787,6.546,5.242c-0.019,0.039-0.038,0.077-0.06,0.115C7.079,5.347,7.601,5.044,7.913,4.587z M5.002,7.89
	c0.317-0.464,0.85-0.769,1.455-0.769c-0.602,0-1.202-0.412-1.521-0.871 M4.937,6.25c0.604,0,1.148-0.296,1.466-0.757
	c0.02-0.04,0.055-0.087,0.077-0.125c-0.005,0,0.012-0.011,0.007-0.011l0,0v0.002c-0.602,0-1.162,0.317-1.479,0.778
	C4.987,6.177,4.959,6.21,4.937,6.25C4.942,6.25,4.932,6.25,4.937,6.25L4.937,6.25L4.937,6.25z M9.528,5.358
	C9.522,5.358,9.532,5.358,9.528,5.358L9.528,5.358L9.528,5.358c-0.603,0-1.135,0.241-1.453,0.7C8.056,6.099,8.007,6.181,7.984,6.22
	C7.989,6.22,7.995,6.229,8,6.229 M7.979,6.25c0.602,0,1.225-0.422,1.544-0.882 M9.522,5.367C9.498,5.328,9.471,5.303,9.451,5.263
	C8.878,4.434,7.84,4.471,7.979,4.471 M6.722,9.766c0-0.277-0.063-0.537-0.177-0.77C6.521,8.962,6.5,8.928,6.479,8.894
	C6.442,8.957,6.403,9.016,6.375,9.082C6.345,9.154,6.318,9.23,6.298,9.307c-0.04,0.148-0.061,0.305-0.061,0.459
	s0.021,0.311,0.061,0.459c0.02,0.07,0.043,0.141,0.07,0.207c0.03,0.074,0.071,0.137,0.111,0.205c0.022-0.037,0.045-0.074,0.07-0.109
	C6.66,10.297,6.722,10.039,6.722,9.766z M6.55,10.768c0.321,0.465,0.856,0.752,1.422,0.76c0,0.002,0.001,0.002,0.001,0.002H7.972
	 M6.414,7.061C6.097,6.596,5.572,6.267,4.968,6.267 M7.979,8.012C7.957,7.975,7.932,7.928,7.913,7.89
	C7.601,7.433,7.079,7.131,6.486,7.122c0.021,0.036,0.04,0.073,0.058,0.11C6.856,7.689,7.385,8.003,7.979,8.012z M7.972,9.766
	c-0.022-0.041-0.044-0.08-0.063-0.119C7.595,9.193,7.076,8.894,6.486,8.884c0.021,0.036,0.04,0.073,0.058,0.111
	C6.856,9.453,7.378,9.756,7.972,9.766z M6.486,10.648c0.037,0.064,0.069,0.129,0.115,0.189s0.095,0.117,0.147,0.17
	c0.105,0.105,0.225,0.199,0.354,0.275c0.263,0.156,0.564,0.24,0.869,0.244c-0.021-0.035-0.04-0.072-0.059-0.109
	C7.601,10.961,7.079,10.658,6.486,10.648C6.508,10.686,7.079,10.658,6.486,10.648z M7.891,9.77
	c-0.287,0.018-0.569,0.107-0.814,0.258c-0.119,0.074-0.229,0.162-0.327,0.26c-0.049,0.049-0.095,0.102-0.138,0.156
	c-0.05,0.064-0.085,0.133-0.125,0.203c0.591-0.01,1.112-0.311,1.426-0.766c0.019-0.039,0.038-0.076,0.06-0.113
	C7.945,9.768,7.918,9.768,7.891,9.77z M7.913,8.114c0.019-0.038,0.044-0.066,0.065-0.102c-0.035,0-0.068-0.008-0.104-0.004
	c-0.037,0.003-0.074,0.006-0.11,0.011C7.688,8.027,7.614,8.042,7.54,8.063c-0.148,0.04-0.292,0.1-0.425,0.177
	C6.985,8.316,6.866,8.408,6.76,8.512c-0.053,0.054-0.104,0.11-0.149,0.17c-0.05,0.063-0.084,0.132-0.124,0.2
	C7.079,8.874,7.601,8.571,7.913,8.114C7.932,8.076,7.601,8.571,7.913,8.114z M9.456,7.232C9.343,7.465,9.278,7.726,9.278,8.003
	c0,0.273,0.064,0.534,0.177,0.765C9.479,8.802,9.5,8.837,9.522,8.874c0.02-0.036,0.042-0.071,0.065-0.105
	c0.111-0.231,0.175-0.492,0.175-0.765c0-0.277-0.063-0.538-0.177-0.771C9.563,7.199,9.542,7.166,9.522,7.13
	C9.5,7.166,9.479,7.199,9.456,7.232z M9.453,9c0.02-0.039,0.04-0.078,0.062-0.115c-0.006,0-0.01-0.001-0.016-0.001
	c-0.604,0-1.136,0.304-1.453,0.767c-0.02,0.039-0.04,0.076-0.062,0.115c0.006,0,0.011,0,0.017,0C8.604,9.766,9.135,9.461,9.453,9z
	 M6.546,8.768c0.112-0.231,0.176-0.492,0.176-0.765c0-0.277-0.063-0.538-0.177-0.771C6.521,7.199,6.5,7.166,6.479,7.13
	C6.459,7.166,6.438,7.199,6.414,7.232c-0.112,0.233-0.177,0.494-0.177,0.77s0.064,0.538,0.177,0.77
	c0.023,0.034,0.045,0.067,0.065,0.102C6.501,8.837,6.522,8.802,6.546,8.768z M4.959,8.003c0.604,0,1.138-0.306,1.455-0.771
	 M5.18,7.121c0-0.273-0.063-0.531-0.174-0.762C4.981,6.324,4.959,6.287,4.937,6.25C4.915,6.287,4.892,6.324,4.867,6.359
	c-0.111,0.23-0.173,0.488-0.173,0.762c0,0.276,0.064,0.537,0.177,0.769c0.023,0.034,0.045,0.067,0.065,0.103
	C4.957,7.957,4.979,7.923,5.002,7.89C5.115,7.657,5.18,7.396,5.18,7.121z M8.142,11.523C8.423,11.5,8.698,11.41,8.938,11.26
	c0.117-0.074,0.227-0.164,0.324-0.264c0.048-0.051,0.096-0.104,0.138-0.16c0.045-0.059,0.078-0.123,0.114-0.188
	c-0.584-0.006-1.142,0.285-1.472,0.77c-0.018,0.037-0.038,0.074-0.058,0.109C8.037,11.529,8.089,11.525,8.142,11.523
	C8.168,11.52,8.131,11.523,8.142,11.523z M9.67,10.332c0.081-0.236,0.109-0.488,0.085-0.736C9.743,9.471,9.718,9.348,9.681,9.229
	C9.661,9.17,9.639,9.111,9.613,9.053C9.588,8.997,9.553,8.948,9.522,8.894C9.484,8.957,9.445,9.016,9.417,9.082
	C9.386,9.154,9.359,9.23,9.339,9.307c-0.04,0.148-0.061,0.305-0.061,0.459s0.021,0.311,0.061,0.459
	c0.02,0.07,0.043,0.141,0.07,0.207c0.032,0.074,0.072,0.137,0.113,0.205c0.027-0.049,0.061-0.094,0.084-0.145
	C9.631,10.439,9.65,10.387,9.67,10.332C9.681,10.301,9.668,10.336,9.67,10.332z M10.934,8.005c-0.288,0.018-0.57,0.107-0.816,0.259
	c-0.118,0.073-0.228,0.16-0.326,0.26c-0.05,0.05-0.097,0.103-0.14,0.158c-0.049,0.063-0.084,0.132-0.123,0.2
	c0.594-0.009,1.114-0.312,1.427-0.769c0.019-0.038,0.038-0.075,0.059-0.111C10.986,8.003,10.96,8.004,10.934,8.005
	C10.922,8.006,10.96,8.004,10.934,8.005z M9.528,8.885C9.55,8.922,9.57,8.961,9.589,9c0.313,0.456,0.88,0.745,1.501,0.803
	c-0.022-0.037-0.132-0.152-0.15-0.189C10.626,9.156,10.119,8.895,9.528,8.885z M8.048,9.885C8.023,9.85,8.001,9.813,7.979,9.775
	C7.957,9.813,7.936,9.848,7.912,9.881c-0.112,0.232-0.177,0.492-0.177,0.766c0,0.277,0.065,0.539,0.178,0.771
	c0.023,0.033,0.045,0.066,0.065,0.102c0.021-0.035,0.042-0.068,0.064-0.102c0.113-0.232,0.178-0.494,0.178-0.771
	C8.221,10.375,8.159,10.115,8.048,9.885z M9.526,10.633c0.001-0.002-0.164-0.221-0.187-0.25c-0.135-0.178-0.275-0.264-0.473-0.377
	c-0.272-0.16-0.578-0.242-0.895-0.238C7.995,9.805,8.021,9.846,8.04,9.887c0.325,0.469,0.908,0.76,1.482,0.76c0.006,0,0,0,0,0
	 M9.586,7.008C9.568,7.046,9.548,7.083,9.528,7.12c0.589-0.009,1.109-0.308,1.422-0.761c0.031-0.04,0.041-0.08,0.063-0.119
	C10.421,6.25,9.899,6.551,9.586,7.008z M9.522,7.13c0.02,0.036,0.046,0.065,0.063,0.102c0.313,0.457,0.751,0.706,1.429,0.769
	c-0.021-0.036-0.041-0.073-0.06-0.111C10.643,7.433,10.115,7.14,9.522,7.13z M9.278,6.239c0,0.276,0.064,0.537,0.178,0.77
	C9.479,7.042,9.5,7.095,9.522,7.13c0.02-0.035,0.041-0.088,0.063-0.122c0.113-0.233,0.177-0.493,0.177-0.77
	c0-0.273-0.062-0.531-0.172-0.761c-0.024-0.036-0.047-0.073-0.068-0.11c-0.023,0.038-0.046,0.074-0.071,0.11
	C9.341,5.708,9.278,5.966,9.278,6.239z M9.431,6.941C9.112,6.48,8.58,6.24,7.979,6.24 M7.985,6.25
	c0.317,0.459,0.94,0.881,1.543,0.881 M10.97,8.185c-0.104,0.233-0.156,0.486-0.148,0.759c0.008,0.275,0.079,0.531,0.199,0.759
	c0.024,0.033,0.047,0.064,0.069,0.1c0.019-0.037,0.039-0.072,0.062-0.105c0.106-0.236,0.16-0.482,0.153-0.759
	c-0.01-0.321-0.101-0.685-0.285-0.944l0.02,0.054C11.009,8.109,10.983,8.146,10.97,8.185z"/>
<path id="_x31_st_ring_2_" fill="none" stroke="#000000" stroke-width="0.6818" stroke-linecap="round" stroke-linejoin="round" d="
	M11.396,10.342c-0.463,0.67-1.119,1.193-1.871,1.494c-0.787,0.313-1.665,0.375-2.487,0.178c-0.792-0.188-1.521-0.615-2.075-1.219
	c-0.554-0.6-0.924-1.367-1.045-2.18C3.793,7.779,3.928,6.914,4.305,6.16c0.362-0.728,0.94-1.337,1.64-1.74
	C6.674,4,7.523,3.815,8.359,3.888c0.822,0.072,1.611,0.393,2.252,0.917c0.627,0.513,1.1,1.212,1.336,1.994
	c0.119,0.388,0.16,0.794,0.178,1.2C12.156,8.697,11.869,9.658,11.396,10.342z"/>
<path id="_x32_nd_ring_2_" display="none" fill="none" stroke="#000000" stroke-width="0.3108" stroke-miterlimit="10" d="
	M4.092,3.537c-0.592,0-1.17,0.242-1.586,0.664C2.093,4.619,1.86,5.196,1.865,5.784C1.869,6.182,1.978,6.571,2.183,6.91
	c0.002,0.004,0.002,0.01,0,0.014C1.801,7.602,1.804,8.442,2.19,9.118c0.002,0.004,0.002,0.01,0,0.014
	c-0.312,0.532-0.387,1.203-0.201,1.794c0.172,0.548,0.563,1.019,1.071,1.292c0.321,0.173,0.686,0.265,1.054,0.265h0.015
	c0.005,0,0.009,0.003,0.012,0.008c0.397,0.68,1.134,1.102,1.922,1.102h0.012c0.005,0,0.01,0.003,0.012,0.007
	c0.302,0.521,0.809,0.902,1.392,1.046c0.172,0.043,0.351,0.064,0.53,0.064c0.419,0,0.827-0.115,1.178-0.333
	c0.314-0.195,0.577-0.468,0.76-0.787c0.002-0.004,0.008-0.007,0.012-0.007c0.786-0.005,1.52-0.429,1.914-1.106
	c0.002-0.005,0.007-0.008,0.012-0.008h0.022c0.593,0,1.171-0.241,1.587-0.664c0.412-0.418,0.645-0.995,0.641-1.582
	c-0.004-0.395-0.112-0.782-0.314-1.12c-0.002-0.004-0.002-0.01,0-0.014c0.184-0.325,0.374-1.519-0.006-2.187
	c-0.003-0.005-0.003-0.01,0-0.015c0.314-0.533,0.391-1.205,0.203-1.798c-0.172-0.548-0.563-1.019-1.07-1.292
	c-0.321-0.173-0.686-0.265-1.055-0.265h-0.008c-0.006,0-0.01-0.003-0.012-0.007c-0.396-0.692-1.139-1.123-1.936-1.124
	c-0.004,0-0.01-0.002-0.012-0.007c-0.308-0.523-0.82-0.903-1.405-1.043c-0.167-0.039-0.34-0.06-0.514-0.06
	c-0.425,0-0.838,0.118-1.192,0.342C6.509,1.827,6.252,2.095,6.072,2.408C6.069,2.412,6.064,2.415,6.06,2.415
	C5.27,2.416,4.531,2.843,4.132,3.53C4.129,3.534,4.125,3.537,4.12,3.537H4.092L4.092,3.537z"/>
<path id="_x33_rd_ring_2_" fill="none" stroke="#000000" stroke-width="0.8832" stroke-miterlimit="10" d="M8.009,14.507
	c-0.176,0-0.351-0.021-0.521-0.063c-0.57-0.14-1.066-0.51-1.363-1.015H6.121c-0.771,0-1.493-0.411-1.884-1.072H4.23
	c-0.361,0-0.72-0.089-1.035-0.259c-0.499-0.268-0.882-0.728-1.051-1.264c-0.183-0.575-0.11-1.229,0.192-1.747
	C1.964,8.43,1.961,7.613,2.33,6.954c-0.197-0.33-0.304-0.708-0.308-1.095C2.018,5.284,2.247,4.721,2.651,4.312
	C3.061,3.899,3.628,3.662,4.21,3.662h0.02C4.62,2.996,5.34,2.581,6.11,2.578c0.178-0.303,0.429-0.563,0.726-0.75
	c0.349-0.219,0.753-0.335,1.171-0.335c0.171,0,0.341,0.021,0.505,0.059c0.571,0.136,1.074,0.505,1.375,1.013
	c0.777,0.004,1.499,0.421,1.889,1.093h0.001c0.362,0,0.719,0.089,1.035,0.259c0.498,0.268,0.881,0.728,1.052,1.263
	c0.182,0.578,0.108,1.232-0.196,1.753c0.365,0.649,0.184,1.799,0.007,2.125c0.194,0.329,0.3,0.705,0.304,1.088
	c0.005,0.575-0.225,1.139-0.63,1.549c-0.408,0.412-0.977,0.649-1.558,0.649h-0.014c-0.388,0.657-1.102,1.068-1.868,1.075
	c-0.18,0.31-0.435,0.574-0.742,0.763C8.821,14.394,8.421,14.507,8.009,14.507z"/>
</svg>
