<?xml version="1.0" encoding="utf-8"?>
<!-- Generator: Adobe Illustrator 16.0.0, SVG Export Plug-In . SVG Version: 6.00 Build 0)  -->
<!DOCTYPE svg PUBLIC "-//W3C//DTD SVG 1.1//EN" "http://www.w3.org/Graphics/SVG/1.1/DTD/svg11.dtd">
<svg version="1.1" id="Layer_1" xmlns="http://www.w3.org/2000/svg" xmlns:xlink="http://www.w3.org/1999/xlink" x="0px" y="0px"
	 width="100px" height="90px" viewBox="0 0 100 90" enable-background="new 0 0 100 90" xml:space="preserve">
<pattern  x="-49.5" y="107.5" width="100" height="90" patternUnits="userSpaceOnUse" id="Asanoha__x5F_white" viewBox="100.045 -180.735 100 90" overflow="visible">
	<g>
		<polygon fill="none" points="100.045,-90.735 200.045,-90.735 200.045,-180.735 100.045,-180.735 		"/>
		<g>
			<polygon fill="none" points="100.045,-90.735 200.045,-90.735 200.045,-180.735 100.045,-180.735 			"/>
			<g>
				
					<line fill="none" stroke="#662D91" stroke-width="2" stroke-miterlimit="10" x1="200.001" y1="-225.338" x2="225.827" y2="-180.485"/>
				<line fill="none" stroke="#662D91" stroke-miterlimit="10" x1="200.079" y1="-195.957" x2="225.827" y2="-180.485"/>
			</g>
			<g>
				
					<line fill="none" stroke="#662D91" stroke-width="2" stroke-miterlimit="10" x1="175.7" y1="-270.485" x2="125.827" y2="-180.485"/>
				
					<line fill="none" stroke="#662D91" stroke-width="2" stroke-miterlimit="10" x1="100.001" y1="-225.338" x2="125.827" y2="-180.485"/>
				<polyline fill="none" stroke="#662D91" stroke-width="2" stroke-miterlimit="10" points="125.557,-270.485 150.651,-225.282 
					175.522,-180.485 				"/>
				
					<line fill="none" stroke="#662D91" stroke-width="2" stroke-miterlimit="10" x1="200.079" y1="-225.235" x2="175.522" y2="-180.485"/>
				<line fill="none" stroke="#662D91" stroke-miterlimit="10" x1="125.827" y1="-210.449" x2="125.827" y2="-180.485"/>
				<line fill="none" stroke="#662D91" stroke-miterlimit="10" x1="175.522" y1="-210.449" x2="175.522" y2="-180.485"/>
				<line fill="none" stroke="#662D91" stroke-miterlimit="10" x1="150.764" y1="-195.889" x2="125.827" y2="-180.485"/>
				<line fill="none" stroke="#662D91" stroke-miterlimit="10" x1="150.764" y1="-195.889" x2="175.522" y2="-180.485"/>
				<line fill="none" stroke="#662D91" stroke-miterlimit="10" x1="100.079" y1="-195.957" x2="125.827" y2="-180.485"/>
				<line fill="none" stroke="#662D91" stroke-miterlimit="10" x1="200.079" y1="-195.797" x2="175.522" y2="-180.485"/>
			</g>
			<g>
				
					<line fill="none" stroke="#662D91" stroke-width="2" stroke-miterlimit="10" x1="100.079" y1="-225.235" x2="75.522" y2="-180.485"/>
				<line fill="none" stroke="#662D91" stroke-miterlimit="10" x1="100.079" y1="-195.797" x2="75.522" y2="-180.485"/>
			</g>
			<g>
				
					<line fill="none" stroke="#662D91" stroke-width="2" stroke-miterlimit="10" x1="200.001" y1="-135.338" x2="300.079" y2="-135.222"/>
				
					<line fill="none" stroke="#662D91" stroke-width="2" stroke-miterlimit="10" x1="200.001" y1="-135.338" x2="225.827" y2="-90.485"/>
				
					<line fill="none" stroke="#662D91" stroke-width="2" stroke-miterlimit="10" x1="225.557" y1="-180.485" x2="200.001" y2="-135.338"/>
				<line fill="none" stroke="#662D91" stroke-miterlimit="10" x1="200.001" y1="-135.338" x2="225.827" y2="-120.449"/>
				<line fill="none" stroke="#662D91" stroke-miterlimit="10" x1="225.557" y1="-150.287" x2="200.001" y2="-135.338"/>
				<line fill="none" stroke="#662D91" stroke-miterlimit="10" x1="200.079" y1="-105.957" x2="225.827" y2="-90.485"/>
				<line fill="none" stroke="#662D91" stroke-miterlimit="10" x1="225.557" y1="-180.485" x2="200.079" y2="-165.763"/>
			</g>
			<g>
				
					<line fill="none" stroke="#662D91" stroke-width="2" stroke-miterlimit="10" x1="100.001" y1="-135.338" x2="200.079" y2="-135.222"/>
				
					<line fill="none" stroke="#662D91" stroke-width="2" stroke-miterlimit="10" x1="175.7" y1="-180.485" x2="125.827" y2="-90.485"/>
				
					<line fill="none" stroke="#662D91" stroke-width="2" stroke-miterlimit="10" x1="100.001" y1="-135.338" x2="125.827" y2="-90.485"/>
				<polyline fill="none" stroke="#662D91" stroke-width="2" stroke-miterlimit="10" points="125.557,-180.485 150.651,-135.282 
					175.522,-90.485 				"/>
				
					<line fill="none" stroke="#662D91" stroke-width="2" stroke-miterlimit="10" x1="175.7" y1="-180.485" x2="200.079" y2="-135.235"/>
				
					<line fill="none" stroke="#662D91" stroke-width="2" stroke-miterlimit="10" x1="200.079" y1="-135.235" x2="175.522" y2="-90.485"/>
				
					<line fill="none" stroke="#662D91" stroke-width="2" stroke-miterlimit="10" x1="125.557" y1="-180.485" x2="100.001" y2="-135.338"/>
				
					<line fill="none" stroke="#662D91" stroke-width="2" stroke-miterlimit="10" x1="100.079" y1="-180.485" x2="200.079" y2="-180.485"/>
				<line fill="none" stroke="#662D91" stroke-miterlimit="10" x1="100.001" y1="-135.338" x2="125.827" y2="-120.449"/>
				<line fill="none" stroke="#662D91" stroke-miterlimit="10" x1="175.7" y1="-150.287" x2="125.827" y2="-120.449"/>
				<line fill="none" stroke="#662D91" stroke-miterlimit="10" x1="125.557" y1="-150.287" x2="175.522" y2="-120.449"/>
				<line fill="none" stroke="#662D91" stroke-miterlimit="10" x1="125.827" y1="-120.449" x2="125.827" y2="-90.485"/>
				<line fill="none" stroke="#662D91" stroke-miterlimit="10" x1="125.557" y1="-180.485" x2="125.557" y2="-150.287"/>
				<line fill="none" stroke="#662D91" stroke-miterlimit="10" x1="175.7" y1="-180.485" x2="175.7" y2="-150.287"/>
				<line fill="none" stroke="#662D91" stroke-miterlimit="10" x1="175.522" y1="-120.449" x2="175.522" y2="-90.485"/>
				<line fill="none" stroke="#662D91" stroke-miterlimit="10" x1="125.557" y1="-150.287" x2="100.001" y2="-135.338"/>
				<line fill="none" stroke="#662D91" stroke-miterlimit="10" x1="175.7" y1="-150.287" x2="200.079" y2="-135.235"/>
				<line fill="none" stroke="#662D91" stroke-miterlimit="10" x1="200.079" y1="-135.235" x2="175.522" y2="-120.449"/>
				<line fill="none" stroke="#662D91" stroke-miterlimit="10" x1="150.617" y1="-167.178" x2="150.764" y2="-105.889"/>
				<line fill="none" stroke="#662D91" stroke-miterlimit="10" x1="175.7" y1="-180.485" x2="150.617" y2="-167.178"/>
				<line fill="none" stroke="#662D91" stroke-miterlimit="10" x1="150.764" y1="-105.889" x2="125.827" y2="-90.485"/>
				<line fill="none" stroke="#662D91" stroke-miterlimit="10" x1="125.557" y1="-180.485" x2="150.617" y2="-167.178"/>
				<line fill="none" stroke="#662D91" stroke-miterlimit="10" x1="150.764" y1="-105.889" x2="175.522" y2="-90.485"/>
				<line fill="none" stroke="#662D91" stroke-miterlimit="10" x1="175.7" y1="-180.485" x2="200.079" y2="-165.807"/>
				<line fill="none" stroke="#662D91" stroke-miterlimit="10" x1="100.079" y1="-105.957" x2="125.827" y2="-90.485"/>
				<line fill="none" stroke="#662D91" stroke-miterlimit="10" x1="125.557" y1="-180.485" x2="100.079" y2="-165.763"/>
				<line fill="none" stroke="#662D91" stroke-miterlimit="10" x1="200.079" y1="-105.797" x2="175.522" y2="-90.485"/>
				<line fill="none" stroke="#662D91" stroke-miterlimit="10" x1="200.079" y1="-165.673" x2="200.079" y2="-105.663"/>
			</g>
			<g>
				
					<line fill="none" stroke="#662D91" stroke-width="2" stroke-miterlimit="10" x1="0.001" y1="-135.338" x2="100.079" y2="-135.222"/>
				
					<line fill="none" stroke="#662D91" stroke-width="2" stroke-miterlimit="10" x1="75.7" y1="-180.485" x2="100.079" y2="-135.235"/>
				
					<line fill="none" stroke="#662D91" stroke-width="2" stroke-miterlimit="10" x1="100.079" y1="-135.235" x2="75.522" y2="-90.485"/>
				
					<line fill="none" stroke="#662D91" stroke-width="2" stroke-miterlimit="10" x1="0.079" y1="-180.485" x2="100.079" y2="-180.485"/>
				<line fill="none" stroke="#662D91" stroke-miterlimit="10" x1="75.7" y1="-150.287" x2="100.079" y2="-135.235"/>
				<line fill="none" stroke="#662D91" stroke-miterlimit="10" x1="100.079" y1="-135.235" x2="75.522" y2="-120.449"/>
				<line fill="none" stroke="#662D91" stroke-miterlimit="10" x1="75.7" y1="-180.485" x2="100.079" y2="-165.807"/>
				<line fill="none" stroke="#662D91" stroke-miterlimit="10" x1="100.079" y1="-105.797" x2="75.522" y2="-90.485"/>
				<line fill="none" stroke="#662D91" stroke-miterlimit="10" x1="100.079" y1="-165.673" x2="100.079" y2="-105.663"/>
			</g>
			<g>
				
					<line fill="none" stroke="#662D91" stroke-width="2" stroke-miterlimit="10" x1="225.557" y1="-90.485" x2="200.001" y2="-45.338"/>
				<line fill="none" stroke="#662D91" stroke-miterlimit="10" x1="225.557" y1="-90.485" x2="200.079" y2="-75.763"/>
			</g>
			<g>
				
					<line fill="none" stroke="#662D91" stroke-width="2" stroke-miterlimit="10" x1="175.7" y1="-90.485" x2="125.827" y2="-0.485"/>
				<polyline fill="none" stroke="#662D91" stroke-width="2" stroke-miterlimit="10" points="125.557,-90.485 150.651,-45.282 
					175.522,-0.485 				"/>
				
					<line fill="none" stroke="#662D91" stroke-width="2" stroke-miterlimit="10" x1="175.7" y1="-90.485" x2="200.079" y2="-45.235"/>
				
					<line fill="none" stroke="#662D91" stroke-width="2" stroke-miterlimit="10" x1="125.557" y1="-90.485" x2="100.001" y2="-45.338"/>
				
					<line fill="none" stroke="#662D91" stroke-width="2" stroke-miterlimit="10" x1="100.079" y1="-90.485" x2="200.079" y2="-90.485"/>
				<line fill="none" stroke="#662D91" stroke-miterlimit="10" x1="175.7" y1="-90.485" x2="150.617" y2="-77.178"/>
				<line fill="none" stroke="#662D91" stroke-miterlimit="10" x1="125.557" y1="-90.485" x2="150.617" y2="-77.178"/>
				<line fill="none" stroke="#662D91" stroke-miterlimit="10" x1="175.7" y1="-90.485" x2="200.079" y2="-75.807"/>
				<line fill="none" stroke="#662D91" stroke-miterlimit="10" x1="125.557" y1="-90.485" x2="100.079" y2="-75.763"/>
			</g>
			<g>
				
					<line fill="none" stroke="#662D91" stroke-width="2" stroke-miterlimit="10" x1="75.7" y1="-90.485" x2="100.079" y2="-45.235"/>
				
					<line fill="none" stroke="#662D91" stroke-width="2" stroke-miterlimit="10" x1="0.079" y1="-90.485" x2="100.079" y2="-90.485"/>
				<line fill="none" stroke="#662D91" stroke-miterlimit="10" x1="75.7" y1="-90.485" x2="100.079" y2="-75.807"/>
			</g>
		</g>
	</g>
</pattern>
<g id="Layer_2">
	<pattern  id="SVGID_1_" xlink:href="#Asanoha__x5F_white" patternTransform="matrix(1 0 0 -1 -350.5449 -16635.2051)">
	</pattern>
	<rect fill="url(#SVGID_1_)" width="100" height="90"/>
</g>
</svg>
