<?xml version="1.0" encoding="utf-8"?>
<!DOCTYPE svg PUBLIC "-//W3C//DTD SVG 1.1//EN" "http://www.w3.org/Graphics/SVG/1.1/DTD/svg11.dtd">
<svg version="1.1" xmlns="http://www.w3.org/2000/svg" xmlns:xlink="http://www.w3.org/1999/xlink" x="0px" y="0px" width="100px"
	 height="100px" viewBox="0 0 100 100" enable-background="new 0 0 100 100" xml:space="preserve">
<g id="frame">
	<path fill="#FFFFFF" stroke="#000000" stroke-width="4" stroke-miterlimit="10" d="M95,85c0,5.523-4.478,10-10,10H15
		C9.477,95,5,90.523,5,85V15C5,9.478,9.477,5,15,5h70c5.522,0,10,4.478,10,10V85z"/>
</g>
<g id="document">
	<polyline id="_x33_rd_page" fill="none" stroke="#000000" stroke-width="2" stroke-miterlimit="10" points="18,27.534 11,27.534 
		12,27.534 12,95 	"/>
	<polyline id="_x32_nd_page" fill="none" stroke="#000000" stroke-width="2" stroke-linecap="square" stroke-miterlimit="10" points="
		21.875,19.909 17.25,19.909 17.25,94.818 	"/>
	<g id="doc_text_lines">
		<line fill="none" stroke="#000000" stroke-width="3.5475" stroke-miterlimit="10" x1="31.301" y1="69.802" x2="93.382" y2="69.802"/>
		<line fill="none" stroke="#000000" stroke-width="3.5475" stroke-miterlimit="10" x1="31.301" y1="79.092" x2="93.382" y2="79.092"/>
		<line fill="none" stroke="#000000" stroke-width="3.5475" stroke-miterlimit="10" x1="31.301" y1="88.382" x2="93.382" y2="88.382"/>
		<g id="f">
			<path d="M58.089,58.738c-2.614,1.302-5.549,2.054-8.662,2.054s-6.048-0.752-8.662-2.054h-9.464v3.547h62.081v-3.547H58.089z"/>
		</g>
		<g id="f2">
			<path d="M31.728,49.449h-0.427v3.547h2.558C33.028,51.896,32.313,50.711,31.728,49.449z"/>
			<path d="M67.126,49.449c-0.585,1.262-1.301,2.448-2.131,3.547h28.387v-3.547H67.126z"/>
		</g>
		<g id="f3">
			<path d="M68.888,40.158c0.021,0.372,0.057,0.74,0.057,1.117c0,0.825-0.068,1.633-0.168,2.431h24.605v-3.548H68.888z"/>
		</g>
		<g id="f4">
			<path d="M32.943,30.869h-1.643v3.21C31.75,32.952,32.302,31.881,32.943,30.869z"/>
			<path d="M65.91,30.869c0.705,1.112,1.296,2.299,1.767,3.548h25.705v-3.548H65.91z"/>
		</g>
		<g id="f5">
			<path d="M31.301,21.579v3.548h7.178c3.124-2.125,6.893-3.371,10.948-3.371c4.056,0,7.824,1.245,10.948,3.371h33.007v-3.548
				H31.301z"/>
		</g>
	</g>
	<polyline id="top_page_outline" fill="none" stroke="#000000" stroke-width="1.7737" stroke-miterlimit="10" points="
		89.717,93.818 22.432,93.818 22.433,14 94.95,14 	"/>
</g>
<g id="magnifying_glass">
	<g id="lens">
		<defs>
			<circle id="SVGID_1_" cx="49.427" cy="41.274" r="16.298"/>
		</defs>
		<use xlink:href="#SVGID_1_"  overflow="visible" fill="#FFFFFF"/>
		<clipPath id="SVGID_2_">
			<use xlink:href="#SVGID_1_"  overflow="visible"/>
		</clipPath>
			<line clip-path="url(#SVGID_2_)" fill="#FFFFFF" stroke="#000000" stroke-width="6.5192" stroke-miterlimit="10" x1="21.849" y1="15.666" x2="78.892" y2="15.666"/>
			<line clip-path="url(#SVGID_2_)" fill="#FFFFFF" stroke="#000000" stroke-width="6.5192" stroke-miterlimit="10" x1="21.849" y1="31.149" x2="78.892" y2="31.149"/>
			<line clip-path="url(#SVGID_2_)" fill="#FFFFFF" stroke="#000000" stroke-width="6.5192" stroke-miterlimit="10" x1="21.848" y1="46.631" x2="78.892" y2="46.631"/>
			<line clip-path="url(#SVGID_2_)" fill="#FFFFFF" stroke="#000000" stroke-width="6.5192" stroke-miterlimit="10" x1="21.849" y1="62.114" x2="78.892" y2="62.114"/>
			<line clip-path="url(#SVGID_2_)" fill="#FFFFFF" stroke="#000000" stroke-width="6.5192" stroke-miterlimit="10" x1="21.849" y1="77.598" x2="78.892" y2="77.598"/>
			<line clip-path="url(#SVGID_2_)" fill="#FFFFFF" stroke="#000000" stroke-width="6.5192" stroke-miterlimit="10" x1="21.848" y1="93.081" x2="78.892" y2="93.081"/>
			<line clip-path="url(#SVGID_2_)" fill="#FFFFFF" stroke="#000000" stroke-width="6.5192" stroke-miterlimit="10" x1="21.849" y1="108.563" x2="78.892" y2="108.563"/>
			<line clip-path="url(#SVGID_2_)" fill="#FFFFFF" stroke="#000000" stroke-width="6.5192" stroke-miterlimit="10" x1="21.849" y1="124.047" x2="78.892" y2="124.047"/>
	</g>
	<circle id="whiteoutline" display="none" fill="none" stroke="#FFFFFF" stroke-width="1.7877" stroke-miterlimit="10" cx="49.427" cy="41.135" r="16.983"/>
	<circle id="rim" fill="none" stroke="#000000" stroke-width="1.8157" stroke-miterlimit="10" cx="49.427" cy="41.274" r="18.915"/>
	<path id="handle" d="M86.888,80.38c1.456,1.737,1.227,4.324-0.51,5.779l0,0c-1.737,1.454-4.325,1.225-5.779-0.512L63.093,64.746
		c-1.453-1.737-1.225-4.325,0.512-5.779l0,0c1.736-1.454,4.324-1.225,5.778,0.512L86.888,80.38z"/>
</g>
</svg>