<?xml version="1.0" encoding="utf-8"?>
<!-- Generator: Adobe Illustrator 16.0.0, SVG Export Plug-In . SVG Version: 6.00 Build 0)  -->
<!DOCTYPE svg PUBLIC "-//W3C//DTD SVG 1.1//EN" "http://www.w3.org/Graphics/SVG/1.1/DTD/svg11.dtd">
<svg version="1.1" xmlns="http://www.w3.org/2000/svg" xmlns:xlink="http://www.w3.org/1999/xlink" x="0px" y="0px"
	 width="109.836px" height="31.774px" viewBox="0 0 109.836 31.774" enable-background="new 0 0 109.836 31.774"
	 xml:space="preserve">
<g id="Layer_1">
</g>
<g id="Layer_3">
	<path fill="#FFFFFF" d="M54.457,14.986v7.427c0,0.043-0.007,0.136-0.073,0.173c0,0-1.616,1.139-4.281,1.139
		c-3.218,0-7.037-0.991-7.037-7.642c0-6.649,3.336-8.033,6.588-8.033c2.822,0,3.939,0.626,4.123,0.756
		c0.066,0.048,0.087,0.119,0.087,0.178l-0.544,2.301c0,0.126-0.131,0.267-0.272,0.224c-0.451-0.14-1.159-0.43-2.805-0.43
		c-1.9,0-3.925,0.563-3.925,4.839c0,4.274,1.944,4.783,3.336,4.783c1.179,0,1.605-0.146,1.605-0.146v-2.958h-1.899
		c-0.126,0-0.228-0.102-0.228-0.228v-2.382c0-0.126,0.102-0.228,0.228-0.228h4.87C54.355,14.759,54.457,14.86,54.457,14.986z
		 M79.333,8.847c0-0.127-0.101-0.229-0.227-0.229h-2.742c-0.126,0-0.228,0.102-0.228,0.229c0,0.001,0.001,5.3,0.001,5.3h-4.275v-5.3
		c0-0.127-0.101-0.229-0.227-0.229h-2.742c-0.125,0-0.227,0.102-0.227,0.229v14.351c0,0.127,0.102,0.229,0.227,0.229h2.742
		c0.126,0,0.227-0.103,0.227-0.229V17.06h4.275l-0.008,6.138c0,0.127,0.102,0.229,0.228,0.229h2.749
		c0.126,0,0.226-0.103,0.227-0.229V8.847z M59.405,10.73c0-0.988-0.792-1.786-1.769-1.786c-0.976,0-1.768,0.798-1.768,1.786
		c0,0.986,0.792,1.786,1.768,1.786C58.613,12.517,59.405,11.717,59.405,10.73z M59.208,20.17c0-0.368,0-6.624,0-6.624
		c0-0.125-0.101-0.229-0.227-0.229h-2.734c-0.125,0-0.237,0.129-0.237,0.255c0,0,0,7.972,0,9.491c0,0.278,0.174,0.361,0.399,0.361
		c0,0,1.166,0,2.463,0c0.271,0,0.336-0.133,0.336-0.366C59.208,22.549,59.208,20.558,59.208,20.17z M89.755,13.339h-2.722
		c-0.125,0-0.227,0.103-0.227,0.229v7.037c0,0-0.691,0.506-1.673,0.506s-1.241-0.445-1.241-1.406s0-6.137,0-6.137
		c0-0.126-0.102-0.229-0.227-0.229h-2.763c-0.124,0-0.227,0.103-0.227,0.229c0,0,0,3.748,0,6.602c0,2.854,1.591,3.553,3.779,3.553
		c1.795,0,3.242-0.992,3.242-0.992s0.069,0.522,0.101,0.584c0.031,0.063,0.112,0.125,0.2,0.125l1.758-0.008
		c0.124,0,0.227-0.104,0.227-0.229l-0.002-9.635C89.982,13.441,89.881,13.339,89.755,13.339z M101.03,18.019
		c0,4.423-1.433,5.69-3.933,5.69c-2.129,0-3.253-1.065-3.253-1.065s-0.069,0.585-0.116,0.661c-0.049,0.078-0.113,0.122-0.199,0.122
		c-0.001,0-1.908,0-1.908,0c-0.126,0-0.228-0.103-0.228-0.229V8.847c0-0.127,0.102-0.229,0.227-0.229h2.751
		c0.125,0,0.227,0.102,0.227,0.229v4.859c0,0,1.051-0.689,2.597-0.689C98.741,13.017,101.03,13.595,101.03,18.019z M97.867,18.19
		c0-2.338-0.943-2.634-1.924-2.546c-0.775,0.068-1.406,0.455-1.406,0.455v4.545c0,0,0.64,0.429,1.584,0.457
		C97.441,21.142,97.867,20.655,97.867,18.19z M67.091,13.315h-2.058l-0.003-2.717c0-0.104-0.053-0.155-0.172-0.155h-2.804
		c-0.108,0-0.167,0.048-0.167,0.153v2.809c0,0-1.405,0.339-1.5,0.365c-0.095,0.028-0.165,0.115-0.165,0.22v1.765
		c0,0.127,0.103,0.229,0.228,0.229h1.438c0,0,0,1.846,0,4.246c0,3.153,2.212,3.463,3.704,3.463c0.683,0,1.498-0.22,1.634-0.269
		c0.081-0.03,0.128-0.115,0.128-0.205l0.003-1.942c0-0.126-0.107-0.229-0.228-0.229s-0.427,0.049-0.742,0.049
		c-1.011,0-1.354-0.469-1.354-1.077s0-4.035,0-4.035h2.058c0.126,0,0.227-0.103,0.227-0.229v-2.211
		C67.318,13.418,67.217,13.315,67.091,13.315z M23.837,1.227c-8.301,0-15.031,6.73-15.031,15.032c0,6.642,4.307,12.275,10.28,14.264
		c0.752,0.137,1.026-0.326,1.026-0.725c0-0.356-0.014-1.303-0.021-2.558c-4.182,0.909-5.063-2.015-5.063-2.015
		c-0.684-1.735-1.669-2.199-1.669-2.199c-1.365-0.932,0.103-0.913,0.103-0.913c1.509,0.105,2.303,1.55,2.303,1.55
		c1.341,2.296,3.519,1.633,4.375,1.249c0.137-0.972,0.524-1.635,0.954-2.01c-3.338-0.38-6.847-1.669-6.847-7.43
		c0-1.641,0.585-2.983,1.547-4.034c-0.154-0.38-0.67-1.909,0.147-3.978c0,0,1.262-0.404,4.134,1.541
		c1.199-0.333,2.484-0.5,3.763-0.506c1.277,0.006,2.563,0.173,3.764,0.506c2.87-1.945,4.13-1.541,4.13-1.541
		c0.82,2.069,0.304,3.598,0.149,3.978c0.963,1.051,1.545,2.393,1.545,4.034c0,5.775-3.515,7.046-6.863,7.417
		c0.54,0.465,1.021,1.383,1.021,2.785c0,2.009-0.019,3.63-0.019,4.123c0,0.402,0.271,0.869,1.034,0.723
		c5.968-1.991,10.271-7.622,10.271-14.262C38.87,7.957,32.139,1.227,23.837,1.227z"/>
</g>
</svg>
