<?xml version="1.0" encoding="utf-8"?>
<!-- Generator: Adobe Illustrator 16.0.0, SVG Export Plug-In . SVG Version: 6.00 Build 0)  -->
<!DOCTYPE svg PUBLIC "-//W3C//DTD SVG 1.1//EN" "http://www.w3.org/Graphics/SVG/1.1/DTD/svg11.dtd">
<svg version="1.1" xmlns="http://www.w3.org/2000/svg" xmlns:xlink="http://www.w3.org/1999/xlink" x="0px" y="0px" width="100px"
	 height="100px" viewBox="0 0 100 100" enable-background="new 0 0 100 100" xml:space="preserve">
<g id="Layer_1" display="none">
</g>
<g id="svg">
	<path fill="none" stroke="#d4af37" stroke-width="8" stroke-miterlimit="10" d="M35,28.731c-5.628,0-10.191,4.563-10.191,10.191
		S29.372,49.114,35,49.114c5.629,0,10.191-4.563,10.191-10.191"/>
	<path fill="none" stroke="#d4af37" stroke-width="8" stroke-miterlimit="10" d="M50,8.923c-8.284,0-15,6.716-15,15
		c0,1.7,0.296,3.327,0.817,4.85c4.976,0.396,8.937,4.358,9.333,9.333c1.523,0.521,3.15,0.817,4.85,0.817
		c1.699,0,3.327-0.296,4.85-0.817c0.396-4.975,4.358-8.938,9.334-9.333C64.704,27.25,65,25.623,65,23.923
		C65,15.639,58.285,8.923,50,8.923z"/>
	<path fill="none" stroke="#d4af37" stroke-width="8" stroke-miterlimit="10" d="M54.809,38.923c0,5.628,4.563,10.191,10.191,10.191
		s10.191-4.563,10.191-10.191c0-5.628-4.563-10.191-10.191-10.191"/>
	<path fill="#d4af37" d="M63,80.395c-1.381,0-2.5-1.119-2.5-2.5s1.119-2.5,2.5-2.5h8.018V63.423h-8.523c0,0-0.073,10.311-8.494,10.439V29
		c0-2.209-1.791-4-4-4s-4,1.791-4,4v54c0,2.209,1.791,4,4,4s4-1.791,4-4v-1.486c8.421,0.129,8.494,10.439,8.494,10.439h8.523V80.395
		H63z"/>
</g>
</svg>
