<?xml version="1.0" encoding="utf-8"?>
<!-- Generator: Adobe Illustrator 16.0.0, SVG Export Plug-In . SVG Version: 6.00 Build 0)  -->
<!DOCTYPE svg PUBLIC "-//W3C//DTD SVG 1.1//EN" "http://www.w3.org/Graphics/SVG/1.1/DTD/svg11.dtd">
<svg version="1.1" xmlns="http://www.w3.org/2000/svg" xmlns:xlink="http://www.w3.org/1999/xlink" x="0px" y="0px" width="500px"
	 height="500px" viewBox="0 0 500 500" backgroundColor="rbga(42,56,93,0.4)" enable-background="new 0 0 500 500" xml:space="preserve">
<g id="single_stroke_design_01">
	
		<line id="unused" display="none" fill="none" stroke="#000000" stroke-width="14.302" stroke-linejoin="bevel" stroke-miterlimit="10" x1="651.274" y1="208.029" x2="540.863" y2="23.487"/>
	<g id="_x35_8.5deg__x28_BEST_x29__1_">
		<g>
			<polygon points="203.618,159.238 188.62,158.988 192.686,165.878 296.042,341.044 311.04,341.294 306.975,334.404 			"/>
		</g>
	</g>
	<mask id="mask" maskUnits="userSpaceOnUse">
		<line fill="none" stroke="#FFFFFF" stroke-width="15" stroke-miterlimit="10" x1="190.25" y1="149" x2="308.5" y2="350.333"/>
	</mask>
	<path fill="none" stroke="#000000" stroke-width="15" stroke-miterlimit="10" d="M458.014,40.566
		c-27.616-22.825-44.546-26.136-72.235-26.391c-40.174-0.368-77.86,29.823-82.246,77.78c0,62.394,0,249.588,0,249.588"/>
	<path fill="none" stroke="#000000" stroke-width="14.3708" stroke-miterlimit="10" d="M41.366,460.003
		c27.63,22.824,44.56,26.143,72.25,26.385c40.175,0.375,77.859-29.81,82.246-77.762c0-62.399,0-249.593,0-249.593"/>
	
		<line fill="none" stroke="#000000" stroke-width="14.3708" stroke-miterlimit="10" x1="108.656" y1="342.104" x2="225.644" y2="342.104"/>
	
		<line fill="none" stroke="#000000" stroke-width="14.3708" stroke-miterlimit="10" x1="273.502" y1="159.453" x2="390.49" y2="159.453"/>
</g>
</svg>
