<?xml version="1.0" encoding="utf-8"?>
<!-- Generator: Adobe Illustrator 16.0.0, SVG Export Plug-In . SVG Version: 6.00 Build 0)  -->
<!DOCTYPE svg PUBLIC "-//W3C//DTD SVG 1.1//EN" "http://www.w3.org/Graphics/SVG/1.1/DTD/svg11.dtd">
<svg version="1.1" xmlns="http://www.w3.org/2000/svg" xmlns:xlink="http://www.w3.org/1999/xlink" x="0px" y="0px" width="340px"
	 height="500px" viewBox="0 0 340 500" enable-background="new 0 0 340 500" xml:space="preserve">
<!--<g id="silver_BG">
	<rect fill="#C0C0C0" width="340" height="500"/>
</g>
<g id="white_stripe">
	<rect x="49.728" fill="#FFFFFF" width="238.788" height="500"/>
</g>-->
<g id="kibou1">
	<g id="kanji_1_1_">
		<path id="_x31_.1" fill="#91B4DF" d="M184.549,45.788c1.576-0.819,1.908-2.052,6.807,0.344c2.713,1.326,7.232,6.229,7.568,6.767
			c1.159,1.853,0.846,2.431-1.504,4.836c-4.178,4.273-13.836,10.343-18.234,13.022c-6.303,3.843-13.22,7.625-19.94,10.665
			c-5.098,2.307-11.625,4.936-16.918,6.75c-8.428,2.889-13.707,5.662-22.702,5.832c-1.711,0.033-5.599,0-1.998-2.156
			c3.446-1.129,6.13-2.143,8.676-3.207c2.821-1.182,5.645-2.623,8.426-3.895c5.538-2.531,11.273-5.428,16.635-8.316
			c6.229-3.354,13.288-7.277,17.458-10.115c4.058-2.763,13.011-9.957,15.216-12.41c0.471-0.523,1.244-1.815,0.479-2.771
			c-0.65-0.813-1.912-2.666-1.896-3.707C182.633,46.795,184.102,46.021,184.549,45.788z"/>
		<path id="_x31_.2" fill="#91B4DF" d="M127.079,63.096c16.971-1.07,33.416,0.202,50.169,2.936
			c7.932,1.294,15.928,2.719,23.598,5.141c3.922,1.239,21.547,8.915,16.697,15.074c-2.578,3.277-8.607,0.779-11.498-0.691
			c-3.512-1.791-7.848-4.25-11.543-5.633c-8.119-3.042-15.063-4.83-23.521-6.674c-8.478-1.85-17.006-3.484-25.577-4.841
			c-3.909-0.619-7.825-1.203-11.752-1.692c-1.885-0.234-7.166-0.716-9.056-0.902c-0.237-0.022-0.386-0.457-0.389-1.672
			C124.205,62.718,126.467,63.135,127.079,63.096z"/>
		<path id="_x31_.3" fill="#91B4DF" d="M166.798,88.035c2.306,1.309,6.113,4.091,6.923,4.806c2.033,1.794-0.438,3.849-1.044,4.698
			c-2.677,3.752-5.123,6.354-7.613,9.847c-2.721,3.816-5.599,7.509-8.635,11.08c-6.119,7.196-13.479,14.578-20.751,20.599
			c-7.332,6.069-14.693,10.705-23.109,15.164c-3.225,1.709-11.988,6.106-16.147,7.84c-5.105,2.129-4.021-1.428-3.525-1.775
			c0.938-0.656,2.682-1.277,3.647-1.893c1.974-1.258,3.997-2.433,5.983-3.668c3.278-2.039,6.438-4.246,9.561-6.512
			c5.875-4.263,11.421-9.021,16.695-14c6.907-6.521,13.234-13.637,19.15-21.061c2.566-3.221,5.06-6.5,7.46-9.848
			c1.21-1.687,4.116-6.58,4.371-7.438c0.102-0.341,0.172-2.723-0.206-3.919c-0.131-0.416-0.667-1.817-0.828-2.151
			c-0.938-1.945,0.435-2.631,1.942-2.604C160.943,87.095,165.455,87.271,166.798,88.035z"/>
		<path id="_x31_.4" fill="#91B4DF" d="M111.309,120.025c0,0-6.419,2.406-10.16-0.045c-3.954-2.59-5.658-3.666-11.277-9.728
			c-1.274-1.375-1.192-3.521,0.182-4.795c1.375-1.272,3.242-0.866,4.795,0.183c5.603,3.782,9.162,3.981,11.755,3.916
			c32.739-0.826,89.778-8.855,108.978-10.996c4.049-0.453,17.205-3.664,21.617-2.533c2.738,0.701,9.047,2.599,10.701,3.654
			c3.549,2.264,3.572,5.104,2.549,6.676c-2.393,3.679-7.354,2.635-15.289,2.289c-4.375-0.191-17.514-0.41-17.514-0.41
			C189.197,108.417,149.519,112.25,111.309,120.025z"/>
		<path id="_x31_.5" fill="#91B4DF" d="M140.654,199.172c-3.138,3.393-5.284,2.146-6.472,1.018
			c-1.083-1.026-2.355-2.401-2.775-4.744c-0.347-1.936-1.33-3.975,0.288-6.063c0.696-2,0.471-5.064,0.44-7.557
			c-0.101-8.234,0.076-19.543-0.7-26.932c-0.346-3.287-0.279-5.871-0.777-7.232c-0.497-1.357-3.593-4.533-3.593-4.533
			c-1.7-1.664-1.729-4.391-0.065-6.09c1.664-1.7,4.391-1.729,6.09-0.066c0,0,6.443,2.383,7.7,4.178
			c1.257,1.793,1.292,8.668,1.292,8.668c0.053,1.523-0.097,24.818,0.5,37.418C142.686,189.453,142.706,196.953,140.654,199.172z"/>
		<path id="_x31_.6" fill="#91B4DF" d="M129.425,145.271c-1.151-4.002-3.247-4.961,6.227-5.699
			c6.694-0.521,38.538-5.133,59.407-6.105c2.117-0.099,6.146-0.419,8.933-1.162c2.084-0.554,4.521-0.91,7.225-1.563
			c0.543-0.132,1.63-0.556,2.193-0.634c0.729-0.101,2.657,0.144,2.932,0.209c1.918,0.469,8.039,4.42,9.693,6.889
			c2.229,3.324,0.901,4.064,0.817,4.193c-0.227,0.352-0.686,2.842-0.694,3.139c-0.028,0.888-0.386,5.115-0.404,7.939
			c-0.033,5.024-0.419,10.022-0.453,15.118c-0.032,4.748,0.113,17.871-0.491,20.617c-0.479,2.152-1.002,4.57-1.966,6.726
			c-0.344,0.768-2.233,3.502-3.315,4.117c-1.258,0.715-4.537,1.086-5.777,0.34c-2.139-1.289-2.02-3.033-3.699-4.886
			c-2.123-2.34-6.557-7.827-8.846-10.348c-0.383-0.422-1.369-1.437-1.061-2.024c0.172-0.332,0.885-0.81,1.26-0.81
			c1.219-0.004,4.283,0.92,4.764,1.024c2.869,0.635,4.82,1.109,6.363,0.689c1.395-0.381,1.99-3.102,1.982-5.434
			c-0.015-3.685,0.403-7.363,0.266-11.045c-0.119-3.125,0.016-15.785-0.188-18.992c-0.065-1.014,0.66-2.572-0.26-4.111
			c-0.521-0.871-1.67-2.209-2.656-2.449c-0.655-0.16-9.774,0.164-12.338,0.338c-3.2,0.219-6.401,0.441-9.604,0.67
			c-3.946,0.283-7.896,0.541-11.842,0.84c-5.065,0.386-26.499,4.242-29.601,4.779c-4.41,0.764-10.6,2.549-12.397,3.01
			c-1.247,0.318-5.007,1.062-5.424-0.155C129.947,148.969,129.874,146.832,129.425,145.271z"/>
		<path id="_x31_.7" fill="#91B4DF" d="M180.586,214.311c-1.275,11.484-6.816,5.148-8.152,3.394
			c-2.682-3.522-2.192-7.992-2.16-10.369c0,0,2.697-63.799,0.755-84.442c-0.375-3.982-3.302-6.425-5.072-8.351
			c-3.415-3.714-2.046-6.339,0.202-5.56c2.287,0.793,4.563,2.111,6.604,3.334c2.729,1.635,6.038,2.408,8.612,5.221
			c1.976,2.156,2.47,1.113,1.687,7.176c-2.945,22.793-2.088,58.467-2.088,58.467C180.941,185.537,181.213,208.645,180.586,214.311z"
			/>
	</g>
</g>
<g id="kibou2">
	<g id="kanji_2">
		<path id="_x32_.1" fill="#91B4DF" d="M121.504,279.6c0.523-2.44,5.813-2.801,9.803-1.91c2.135,0.478,6.273,2.059,8.148,3.184
			c3.819,2.292,2.093,4.838,1.782,6.493c-0.841,4.485-1.782,13.623-2.037,18.207c-0.093,1.679-3.459,2.911-5.093,3.31
			c-7.893,1.932-5.555-3.013-5.474-4.838c0.254-5.729,1.019-15.023-2.674-18.716C124.677,284.046,120.74,283.165,121.504,279.6z"/>
		<path id="_x32_.2" fill="#91B4DF" d="M82.8,308.755c0.492-1.343,2.419-3.438,5.602-1.146c2.465,1.773,4.329,4.074,10.313,3.564
			c11.554-0.982,38.153-7.396,50.927-9.548c4.464-0.752,10.566-5.093,18.079-1.019c1.474,0.799,4.479,1.399,4.388,5.283
			c-0.053,2.243-1.588,3.502-8.081,4.394c-11.499,1.577-34.407,5.348-45.834,7.384c-3.946,0.703-11.779,2.434-15.659,3.438
			c-4.966,1.285-8.785,3.565-14.642-1.527C85.636,317.615,81.399,312.575,82.8,308.755z"/>
		<path id="_x32_.3" fill="#91B4DF" d="M102.279,319.704c0.557-1.56,2.801-3.263,4.456-3.31c1.906-0.056,6.59,1.424,6.875,3.31
			c0.905,5.987-0.554,24.42-0.255,28.009c0.346,4.145,2.185,7.736,5.477,7.84c17.695,0.563,27.397-3.027,31.572-4.656
			c3.713-1.451,9.852-2.244,11.968-0.127c4.965,4.965,2.627,8.147,0,9.42c-5.409,2.623-17.573,4.223-23.554,4.838
			c-8.784,0.906-22.16,2.468-28.519-0.764c-2.89-1.468-7.512-3.947-8.021-10.186c-0.503-6.154-0.345-18.542,0.127-24.699
			C102.916,322.74,101.006,323.27,102.279,319.704z"/>
		<path id="_x32_.4" fill="#91B4DF" d="M188.98,289.913c-0.892-1.655-1.272-4.838,3.819-3.82c2.714,0.543,7.318,3.964,9.55,5.603
			c2.164,1.589,3.945,10.566,1.019,22.662c-1.542,6.369-4.854,19.218-8.021,24.953c-4.117,7.453-8.367,16.551-20.881,26.9
			c-0.828,0.686-6.747,2.514-4.202-0.928c15.532-21.008,19.098-39.168,21.517-54.471c0.469-2.965,0.782-8.938,0.891-11.927
			C192.801,295.387,190.132,292.048,188.98,289.913z"/>
		<path id="_x32_.5" fill="#91B4DF" d="M196.493,290.676c1.614-1.771,7.153-0.775,9.549-0.891c7.894-0.383,24.946-2.692,36.03-6.239
			c3.183-1.019,3.183-1.019,5.855,0c2.397,0.914,6.18,3.662,8.148,6.239c2.673,3.499,0.8,4.588,0.254,5.855
			c-1.225,2.846-2.419,8.786-2.928,11.84c-2.547,15.259-7.898,37.057-12.223,48.89c-2.42,6.62-6.033,11.493-9.168,14.387
			c-1.191,1.101-4.111,2.636-5.729,2.529c-1.363-0.089-2.928,0.006-4.456-2.657c-1.101-1.916-2.036-4.418-5.854-6.62
			c-2.051-1.182-5.349-3.946-7.896-5.221c-0.541-0.271-2.291-1.782-0.127-2.418c2.03-0.597,6.202,1.358,8.274,1.782
			c5.603,1.146,8.52,0.271,10.059-1.782c5.729-7.64,10.021-26.306,12.478-35.267c1.406-5.129,2.888-15.035,4.074-20.879
			c1.782-8.785-1.364-5.83-2.929-5.603c-10.567,1.528-21.174,2.927-28.52,4.263c-2.353,0.428-4.201,0.702-9.166,2.739
			c-1.609,0.66-4.921-2.407-5.729-3.947C195.68,296.129,195.313,291.97,196.493,290.676z"/>
		<path id="_x32_.6" fill="#91B4DF" d="M199.932,312.191c-2.455,0-3.214,7.781-1.656,9.677c0.971,1.181,4.588-0.136,6.111-0.254
			c5.436-0.427,14.973-1.789,21.645-2.419c3.898-0.368,8.402-1.4,15.658-0.51c1.502,0.185,3.451-3.155,3.947-4.582
			c0.484-1.394,0.074-5.729-1.4-5.729c-6.492,0-12.077,0.79-17.627,1.399c-3.264,0.359-8.854,1.041-13.057,1.4
			C207.059,311.732,205.659,312.191,199.932,312.191z"/>
		<path id="_x32_.7" fill="#91B4DF" d="M193.311,334.729c3.188-0.494,4.491-0.404,5.983-0.511c10.821-0.764,29.155-4.2,41.378-3.819
			c1.146,0.037,1.863,3.231,1.527,4.33c-0.469,1.528-2.823,4.17-4.329,4.711c-3.024,1.084-9.649,0.076-12.858,0.254
			c-5.586,0.31-13.46,1.181-17.951,1.608c-3.935,0.375-10.186,2.974-15.787,0.81C189.486,341.421,191.418,335.02,193.311,334.729z"
			/>
		<path id="_x32_.8" fill="#91B4DF" d="M119.339,376.614c0.012-1.155-0.148-2.817,4.457-1.273c2.969,0.995,7.251,2.986,9.763,3.564
			c8.061,1.858,17.039,0.37,22.702,0c7.802-0.511,23.293-3.054,31.008-4.328c4.657-0.771,12.422-1.66,18.519-3.692
			c3.438-1.146,8.264-0.84,10.636,0.383c2.092,1.076,6.834,5.067,6.426,7.385c-0.334,1.89-0.511,4.582-6.426,4.455
			c-5.17-0.111-14.201,0.162-20.684,0.254c-10.408,0.149-31.012,3.275-41.261,5.095c-8.455,1.499-16.042,4.073-21.771,1.272
			c-2.38-1.164-6.218-2.795-9.294-5.094C121.611,383.289,119.298,380.943,119.339,376.614z"/>
		<path id="_x32_.9" fill="#91B4DF" d="M162.754,385.271c0.296-1.533,3.279-4.021,4.838-3.946
			c3.695,0.175,10.809,4.784,12.352,8.147c1.399,3.055,0.186,5.547,0,7.385c-1.146,11.33,0.494,30.834-3.057,44.941
			c-0.345,1.367-1.654,2.547-5.033,2.547c-2.219,0-3.355-1.047-3.751-2.037c-2.037-5.094-0.922-16.908-0.637-22.535
			c0.32-6.328-0.09-17.146-0.383-25.336C166.828,387.309,162.274,387.761,162.754,385.271z"/>
		<path id="_x32_.10" fill="#91B4DF" d="M127.36,411.116c-1.273-1.798-0.563-2.619,0-3.183c1.096-1.097,2.164-1.654,6.198,0
			c2.836,1.164,12.518,0.637,17.609,0c7.854-0.981,23.606-2.607,31.446-3.692c5.254-0.728,15.295-1.942,21.009-3.183
			c4.563-0.992,9.526-0.313,12.222,1.146c3.057,1.653,7.768,5.729,1.02,8.911c-3.694,1.742-12.223,0.845-16.297,1.146
			c-7.367,0.546-22.133,1.112-29.461,2.037c-6.298,0.794-18.901,2.619-25.157,3.691c-8.912,1.528-9.552,0.247-12.39-1.019
			C131.611,416.104,128.593,412.855,127.36,411.116z"/>
		<path id="_x32_.11" fill="#91B4DF" d="M93.239,439.254c2.292-2.547,5.077-0.793,6.493,0c3.184,1.781,9.19,2.605,12.35,2.801
			c3.513,0.217,10.514-0.966,14.005-1.4c32.72-4.073,68.618-3.967,92.177-5.094c3.168-0.149,7.604,0.181,12.604-1.399
			c4.838-1.527,8.956,0,11.713,1.021c3.231,1.193,11.194,4.575,11.204,8.021c0.013,5.603-2.785,5.797-4.584,5.603
			c-5.855-0.638-12.776-1.721-17.061-2.037c-13.775-1.021-41.474-1.201-55.254-0.254c-14.94,1.024-29.03,1.019-59.458,7.256
			c-2.713,0.557-8.403,1.91-11.076,0c-3.884-2.773-7.772-6.285-11.331-8.656C92.349,443.327,92.216,440.391,93.239,439.254z"/>
	</g>
</g>
</svg>
