<?xml version="1.0" encoding="utf-8"?>
<!-- Generator: Adobe Illustrator 16.0.0, SVG Export Plug-In . SVG Version: 6.00 Build 0)  -->
<!DOCTYPE svg PUBLIC "-//W3C//DTD SVG 1.1//EN" "http://www.w3.org/Graphics/SVG/1.1/DTD/svg11.dtd">
<svg version="1.1" xmlns="http://www.w3.org/2000/svg" xmlns:xlink="http://www.w3.org/1999/xlink" x="0px" y="0px" width="340px"
	 height="500px" viewBox="0 0 340 500" enable-background="new 0 0 340 500" xml:space="preserve">
<!--<g id="silver_BG">
	<rect fill="#C0C0C0" width="340" height="500"/>
</g>
<g id="white_stripe">
	<rect x="50.728" fill="#FFFFFF" width="238.788" height="500"/>
</g>-->
<g id="yuuki1">
	<g id="kanji_3">
		<path id="_x33_.1" fill="#91B4DF" d="M121.171,66.199c-5.272-2.808,1.943-2.276,5.766-2.403
			c17.75-0.586,60.084-8.895,69.777-13.095c1.935-0.838,3.204-3.729,8.671-0.24c2.686,1.713,8.629,3.901,11.293,5.646
			c6.227,4.08,1.371,5.318,0,5.766c-14.918,4.882-33.82,12.891-43.969,20.904c-0.795,0.627-4.514-0.74-3.785-1.442
			c12.813-12.338,16.335-14.614,19.643-17.299c4.543-3.689,1.906-4.184-0.721-3.604c-20.687,4.561-36.719,7.337-48.895,10.572
			c-5.11,1.357-7.193,1.357-9.13-0.12C127.865,69.393,123.341,67.355,121.171,66.199z"/>
		<path id="_x33_.2" fill="#91B4DF" d="M151.941,79.411c-1.604-0.64-5.286-3.844,3.525-2.883c4.504,0.491,11.902,0.381,15.698,1.442
			c5.959,1.665,6.939,4.604,8.01,7.048c0.934,2.134,2.402,5.446,0.721,9.291c-0.459,1.05-2.94,2.005-4.084,2.082
			c-1.59,0.106-4.967,1.441-6.268-1.121c-1.779-3.506-5.054-6.801-7.029-8.811C160.287,84.193,154.891,80.589,151.941,79.411z"/>
		<path id="_x33_.3" fill="#91B4DF" d="M118.462,98.793c-3.364-5.286,1.589-3.248,2.563-3.043c5.138,1.082,10.891,3.87,11.694,7.208
			c3.044,12.655,6.804,28.568,8.811,41.81c0.8,5.287-3.174,4.522-4.485,3.846c-3.22-1.666-7.48-5.883-8.009-8.813
			c-2.403-13.295-5.032-24.277-7.369-32.198C121.002,105.356,119.72,100.771,118.462,98.793z"/>
		<path id="_x33_.4" fill="#91B4DF" d="M122.627,100.876c-0.005-1.695,3.763-4.007,5.446-3.803
			c10.893,1.321,46.358-3.941,61.673-6.289c5.055-0.774,12.334-1.762,20.023-4.193c1.348-0.427,1.121-3.652,5.606-0.772
			c1.731,1.113,5.685,2.443,7.526,3.364c1.927,0.96,5.521,2.393,7.529,4.165c0.664,0.586,2.619,1.61-0.399,4.206
			c-1.41,1.212-2.804,2.522-7.529,15.336c-2.748,7.455-6.33,23.761-11.935,29.395c-1.922,1.933-4.166,2.078-7.209-0.241
			c-2.196-1.674-0.34-8.334,0.16-11.052c1.164-6.333,4.541-18.78,6.248-24.99c4.004-14.576-1.908-12.563-5.127-12.014
			c-16.658,2.844-34.605,5.246-46.133,6.808c-7.773,1.054-22.9,3.765-31.077,3.604C125.943,104.371,122.631,102.366,122.627,100.876
			z"/>
		<path id="_x33_.5" fill="#91B4DF" d="M161.873,98.793c0.01-0.802,1.563-2.426,2.323-2.682c1.355-0.456,4.578-0.195,5.828,0.5
			c2.335,1.302,6.375,7.197,6.347,9.872c-0.081,7.714,1.141,20.043,0,26.511c-0.244,1.385-1.012,4.238-2.163,5.045
			c-1.345,0.943-5.164,0.854-6.567,0c-1.118-0.68-1.762-0.321-2.169-4.645c-0.616-6.544,0.289-19.223-0.24-24.669
			C164.382,100,161.839,101.676,161.873,98.793z"/>
		<path id="_x33_.6" fill="#91B4DF" d="M143.972,119.778c-4.746,0.721,2.708,3.895,3.964,4.205c1.036,0.255,3.259,1.214,4.205,0.721
			c4.445-2.319,28.455-7.449,44.813-8.41c3.683-0.216,5.788-2.247,5.407-2.883c-1.623-2.704-5.631-4.543-7.812-5.527
			c-4.926-2.223-3.926,0.333-5.045,0.961c-5.467,3.063-17.024,4.936-22.827,6.007C163.422,115.454,152.967,118.411,143.972,119.778z
			"/>
		<path id="_x33_.7" fill="#91B4DF" d="M139.681,140.176c4.972,0.667,4.15,0.065,17.707-2.617
			c8.622-1.706,22.557-4.146,30.275-5.287c5.687-0.839,7.29-2.002,13.296,0.48c1.955,0.809,6.594,2.196,7.367,4.165
			c0.393,0.995-0.068,3.577-0.959,4.165c-1.305,0.859-3.125,2.676-6.248,0c-1.982-1.697-5.206-4.405-20.457-2.083
			c-7.746,1.179-25.462,4.897-31.345,5.446c-3.601,0.339-12.479,5.682-12.594-0.399
			C136.611,138.119,138.622,140.034,139.681,140.176z"/>
		<path id="_x33_.8" fill="#91B4DF" d="M120.144,165.993c-1.182,0.146-4.005,0.479-0.961,2.241c1.458,0.844,4.623,2.138,5.927,3.203
			c1.762,1.441,3.861,0.205,5.126,0c19.561-3.162,53.26-11.351,71.284-13.295c0.916-0.099,2.813-0.302,3.684,0
			c0.98,0.34,2.59,2.287,2.303,3.284c-4.98,17.304-8.102,25.069-14.877,37.644c-0.497,0.924-2.355,4.056-3.563,3.947
			c-5.648-0.504-12.5-0.727-17.183-3.707c-1.762-1.119-4.005-1.44-1.122,2.082c5.801,7.09,12.815,11.854,14.577,18.924
			c0.267,1.063,0.955,1.873,1.203,2.941c0.479,2.083,1.841,3.285,5.125-0.479c6-6.879,14.017-19.625,18.662-31.478
			c3.147-8.034,9.131-28.354,13.614-31.719c0.509-0.378,2.084-1.12,0.804-2.401c-1.549-1.548-5.32-3.861-7.209-4.967
			c-1.888-1.102-5.774-3.156-7.851-3.844c-4.326-1.436-2.188-1.477-5.928,0.721C198.171,152.377,164.036,160.546,120.144,165.993z"
			/>
		<path id="_x33_.9" fill="#91B4DF" d="M162.915,143.758c-0.611-0.924,1.302-3.587,2.315-4.035c1.519-0.676,4.989,1.043,6.334,2.02
			c1.834,1.328,3.203,5.195,5.295,7.352c0.961,0.991,0,5.525,0,5.525c-2.019,8.305-11.833,22.916-17.31,29.477
			c-6.806,8.152-23.277,21.467-32.198,27.23c-3.897,2.52-7.489,3.877-16.819,8.328c-3.879,1.854-1.818-0.639,0-1.92
			c9.367-6.608,20.137-15.412,25.945-21.465c5.92-6.172,15.688-19.28,20.509-27.072c1.687-2.727,5.329-8.749,6.125-11.854
			C163.963,154.033,166.438,149.093,162.915,143.758z"/>
	</g>
</g>
<g id="Layer_4">
	<g id="kanji_4">
		<path id="_x34_.1" fill="#91B4DF" d="M114.715,280.617c-2.775-2.145-0.646-3.012,0-3.658c0.647-0.646,1.366-0.328,3.658,0
			c3.532,0.504,9.436,5.018,11.856,7.568c0.749,0.789,2.197,2.697,2.144,3.783c-0.05,1.041-1.823,2.537-2.396,3.406
			c-7.189,10.883-16.702,18.952-24.47,25.102c-4.217,3.338-12.184,8.804-18.037,11.729c-2.775,1.388-1.466-1.176-1.135-1.514
			c14-14.253,22.584-27.194,28.506-37.335c0.605-1.037,1.707-3.229,1.892-4.415c0.103-0.658,0.011-2.038-0.252-2.649
			C116.215,282.02,115.245,281.027,114.715,280.617z"/>
		<path id="_x34_.2" fill="#91B4DF" d="M115.22,304.33c-0.355-1.034,1.304-3.62,2.396-3.658c10.973-0.378,11.585-1.357,15.388-2.145
			c7.529-1.56,20.825-5.262,29.39-8.957c1.496-0.645,3.313-1.818,4.667-4.035c0.479-0.784,2.218-1.031,3.018-1.135
			c3.114-0.406,9.522,0.255,12.497,1.261c0.912,0.309,2.709,1.243,3.279,2.019c1.767,2.396,1.514,3.279,0,4.541
			c-1.211,1.01-4.361,1.971-5.929,2.146c-15.893,1.771-42.003,9.964-48.436,12.487c-1.318,0.517-4.136,1.225-5.55,1.135
			C123.115,307.809,116.14,307.008,115.22,304.33z"/>
		<path id="_x34_.3" fill="#91B4DF" d="M114.463,324.385c-0.856,0.219-5.407,1.135-2.019,2.901c2.417,1.259,5.96,2.532,8.073,2.901
			c1.087,0.188,2.522,0.756,4.415,0c8.781-3.513,27.019-8.709,36.201-10.975c2.93-0.722,8.817-1.402,11.857-2.27
			c1.766-0.506,1.363-2.686,1.009-3.532c-0.791-1.888-5.228-3.328-7.189-3.91c-1.911-0.567-6.929-2.345-7.947-0.631
			c-2.396,4.036-13.803,7.188-18.667,8.956C133.955,320.093,122.914,322.241,114.463,324.385z"/>
		<path id="_x34_.4" fill="#91B4DF" d="M91.128,354.784c-5.392,0.378-3.28,2.396,0,3.784c1.801,0.762,5.5,2.049,7.315,2.774
			c3.784,1.515,8.099-0.356,10.612-1.262c17.516-6.308,41.527-14.772,55.23-19.929c4.928-1.854,14.001-4.416,19.677-7.063
			c1.086-0.507,5.124-1.151,4.793,0c-9.712,33.804-8.096,53.521-2.427,70.384c4.872,14.49,17.059,34.562,42.285,44.651
			c3.277,1.312,10.104,4.767,13.623,5.045c2.615,0.208,7.82,0.883,10.343-1.515c2.461-2.336,2.019-5.172,0-8.576
			c-3.604-6.08-4.541-22.578-4.036-32.29c0.066-1.313-0.57-6.424-2.271-0.757c-1.813,6.039-4.008,13.188-6.812,17.406
			c-3.101,4.666-3.405,6.181-10.595,4.289c-10.057-2.646-25.984-18.416-30.525-28.256c-4.455-9.652-5.424-30.775-3.279-42.381
			c1.037-5.611,4.102-16.107,7.82-20.434c0.686-0.797,2.483-2.596,3.279-3.28c1.085-0.933,2.83-2.26,4.037-3.026
			c1.387-0.884,1.64-2.271,0.252-3.781c-1.92-2.086-7.529-5.348-10.092-6.563c-6.149-2.917-7.063-4.65-11.855-1.261
			c-9.723,6.875-66.555,23.11-89.051,30.021C97.449,353.381,93.219,354.637,91.128,354.784z"/>
		<path id="_x34_.5" fill="#91B4DF" d="M143.852,357.938c-1.009-1.135-0.58-2.699,0-3.279c0.691-0.691,3.014-0.391,3.91,0
			c3.38,1.477,5.67,2.779,7.442,3.91c1.706,1.09,5.455,3.146,6.433,4.918c0.841,1.525,2.648,4.037,0.63,6.938
			c-6.414,9.22-15.41,22.124-21.19,29.138c-5.112,6.201-15.495,18.576-21.569,23.84c-6.373,5.521-20.297,15.371-28.002,18.793
			c-0.713,0.316-2.483,1.316-3.027,0.758c-0.411-0.422,0.176-1.896,0.631-2.271c9.208-7.567,21.714-19.945,28.128-27.371
			c5.403-6.256,14.534-20.111,18.92-27.119c2.776-4.435,7.698-13.783,9.208-18.793c0.422-1.4,1.766-4.541,0.757-5.803
			C145.45,360.755,144.567,358.742,143.852,357.938z"/>
		<path id="_x34_.6" fill="#91B4DF" d="M107.273,387.15c0,0-0.91-0.526-1.388-1.211c-0.145-0.207,0.167-0.644,0.723-0.487
			c0.818,0.229,1.931,0.545,2.431,0.714c11.267,3.807,33.703,13.027,42.885,20.586c8.073,6.643,9.988,11.094,12.361,15.389
			c0.734,1.327,1.739,3.963,2.145,5.424c0.283,1.02,0.594,3.666,0.252,4.666c-0.274,0.804-1.692,2.099-2.523,2.271
			c-1.269,0.266-4.038-0.759-5.171-1.389c-3.937-2.184-10.361-8.627-13.623-11.729c-2.003-1.905-6.161-5.825-8.199-7.694
			c-6.736-6.176-17.364-16.271-27.245-24.092C109.215,389.038,109.215,389.038,107.273,387.15z"/>
	</g>
</g>
</svg>
