<?xml version="1.0" encoding="utf-8"?>
<!-- Generator: Adobe Illustrator 16.0.0, SVG Export Plug-In . SVG Version: 6.00 Build 0)  -->
<!DOCTYPE svg PUBLIC "-//W3C//DTD SVG 1.1//EN" "http://www.w3.org/Graphics/SVG/1.1/DTD/svg11.dtd">
<svg version="1.1" id="Layer_1" xmlns="http://www.w3.org/2000/svg" xmlns:xlink="http://www.w3.org/1999/xlink" x="0px" y="0px"
	 width="200px" height="125px" viewBox="0 0 200 125" enable-background="new 0 0 200 125" xml:space="preserve">
<g>
	<path fill="#FFFFFF" d="M8.412,119.337c-0.948,0-1.823-0.177-2.628-0.531c-0.804-0.356-1.503-0.842-2.095-1.461
		c-0.592-0.616-1.054-1.35-1.384-2.196c-0.331-0.85-0.496-1.766-0.496-2.75c0-0.999,0.165-1.91,0.496-2.731
		c0.33-0.824,0.792-1.526,1.384-2.104c0.592-0.58,1.291-1.029,2.095-1.349c0.805-0.317,1.681-0.477,2.628-0.477h7.371v2.376H8.412
		c-0.611,0-1.175,0.109-1.693,0.328s-0.962,0.52-1.336,0.908c-0.375,0.385-0.667,0.847-0.88,1.383
		c-0.211,0.536-0.317,1.128-0.317,1.776c0,0.636,0.106,1.229,0.317,1.777c0.212,0.548,0.505,1.02,0.88,1.411
		c0.374,0.396,0.82,0.703,1.336,0.929c0.518,0.224,1.082,0.336,1.693,0.336h7.371v2.375H8.412L8.412,119.337z"/>
	<path fill="#FFFFFF" d="M23.919,119.337c-0.948,0-1.823-0.177-2.628-0.531c-0.804-0.356-1.502-0.842-2.095-1.461
		c-0.592-0.616-1.054-1.35-1.384-2.196c-0.331-0.85-0.496-1.766-0.496-2.75c0-0.999,0.165-1.91,0.496-2.731
		c0.33-0.824,0.792-1.526,1.384-2.104c0.593-0.58,1.291-1.029,2.095-1.349c0.805-0.317,1.681-0.477,2.628-0.477h3.312
		c0.985,0,1.886,0.163,2.703,0.487c0.816,0.324,1.519,0.779,2.104,1.366c0.586,0.585,1.042,1.288,1.365,2.104
		c0.324,0.815,0.487,1.718,0.487,2.703c0,0.984-0.166,1.9-0.496,2.75c-0.331,0.847-0.792,1.58-1.384,2.196
		c-0.592,0.619-1.293,1.104-2.104,1.461c-0.811,0.354-1.703,0.531-2.675,0.531H23.919L23.919,119.337z M27.23,116.962
		c0.624,0,1.198-0.112,1.721-0.336c0.524-0.226,0.976-0.533,1.356-0.927s0.677-0.863,0.889-1.412
		c0.212-0.549,0.318-1.141,0.318-1.776c0-0.637-0.106-1.227-0.318-1.769c-0.212-0.543-0.508-1.007-0.889-1.393
		c-0.381-0.387-0.832-0.689-1.356-0.908c-0.523-0.219-1.097-0.326-1.721-0.326h-3.312c-0.61,0-1.176,0.107-1.692,0.326
		c-0.518,0.219-0.963,0.521-1.337,0.908c-0.374,0.386-0.667,0.847-0.879,1.383s-0.318,1.13-0.318,1.778
		c0,0.636,0.106,1.228,0.318,1.776s0.505,1.019,0.879,1.412c0.375,0.394,0.82,0.701,1.337,0.927
		c0.517,0.224,1.082,0.336,1.692,0.336H27.23z"/>
	<path fill="#FFFFFF" d="M38.024,109.386v9.951H35.76v-12.345c0-0.437,0.109-0.783,0.328-1.038c0.218-0.256,0.514-0.384,0.889-0.384
		c0.174,0,0.343,0.037,0.505,0.111c0.162,0.075,0.33,0.2,0.505,0.375l9.597,9.521v-9.949h2.264v12.457
		c0,0.448-0.109,0.798-0.327,1.047c-0.219,0.25-0.502,0.375-0.852,0.375c-0.387,0-0.748-0.17-1.084-0.506L38.024,109.386z"/>
	<path fill="#FFFFFF" d="M52.147,119.337v-2.375h10.195c0.636,0,1.125-0.161,1.468-0.486c0.343-0.324,0.515-0.754,0.515-1.29
		c0-0.587-0.171-1.025-0.515-1.318c-0.343-0.294-0.832-0.44-1.468-0.44h-6.249c-0.636,0-1.213-0.096-1.73-0.289
		c-0.517-0.193-0.954-0.461-1.31-0.805c-0.355-0.343-0.629-0.752-0.823-1.224c-0.193-0.477-0.29-0.994-0.29-1.555
		c0-0.549,0.09-1.058,0.271-1.525c0.181-0.467,0.449-0.87,0.805-1.206c0.355-0.337,0.794-0.603,1.318-0.796
		c0.524-0.191,1.123-0.289,1.796-0.289h9.764v2.375h-9.764c-0.549,0-0.974,0.146-1.272,0.439c-0.3,0.294-0.449,0.702-0.449,1.227
		c0,0.522,0.152,0.93,0.458,1.217c0.305,0.286,0.72,0.429,1.244,0.429h6.229c1.384,0,2.434,0.324,3.152,0.974
		c0.717,0.648,1.076,1.634,1.076,2.955c0,0.574-0.088,1.104-0.262,1.59c-0.175,0.485-0.437,0.906-0.786,1.262
		s-0.789,0.633-1.318,0.832c-0.531,0.2-1.151,0.3-1.862,0.3H52.147L52.147,119.337z"/>
	<path fill="#FFFFFF" d="M80.769,105.738h2.32v7.595c0,1.049-0.137,1.961-0.412,2.741s-0.705,1.426-1.291,1.937
		s-1.344,0.893-2.272,1.142c-0.929,0.248-2.055,0.373-3.377,0.373c-1.31,0-2.43-0.125-3.358-0.373
		c-0.929-0.249-1.687-0.631-2.273-1.142s-1.017-1.156-1.291-1.937s-0.412-1.692-0.412-2.741v-7.595h2.451v7.595
		c0,0.688,0.084,1.272,0.253,1.76c0.168,0.485,0.442,0.886,0.823,1.196c0.381,0.312,0.888,0.54,1.525,0.685
		c0.636,0.143,1.421,0.215,2.356,0.215c0.936,0,1.721-0.072,2.357-0.215c0.637-0.145,1.144-0.372,1.525-0.685
		c0.381-0.311,0.655-0.711,0.824-1.196c0.168-0.487,0.252-1.072,0.252-1.76V105.738z"/>
	<path fill="#FFFFFF" d="M85.239,119.337v-13.599h2.375v11.224h9.147v2.375H85.239L85.239,119.337z"/>
	<path fill="#FFFFFF" d="M100.728,119.337v-11.224h-5.164v-2.376h12.702v2.376h-5.163v11.224H100.728L100.728,119.337z"/>
	<path fill="#FFFFFF" d="M109.969,119.337v-13.599h2.375v13.599H109.969L109.969,119.337z"/>
	<path fill="#FFFFFF" d="M117.039,109.386v9.951h-2.264v-12.345c0-0.437,0.109-0.783,0.328-1.038
		c0.219-0.256,0.514-0.384,0.889-0.384c0.174,0,0.342,0.037,0.504,0.111c0.162,0.075,0.33,0.2,0.506,0.375l9.598,9.521v-9.949h2.262
		v12.457c0,0.448-0.107,0.798-0.326,1.047c-0.221,0.25-0.502,0.375-0.852,0.375c-0.387,0-0.748-0.17-1.084-0.506L117.039,109.386z"
		/>
	<path fill="#FFFFFF" d="M137.371,119.337c-0.945,0-1.822-0.177-2.627-0.531c-0.805-0.356-1.502-0.842-2.094-1.461
		c-0.594-0.616-1.057-1.35-1.385-2.196c-0.33-0.85-0.494-1.766-0.494-2.75c0-0.997,0.164-1.91,0.494-2.731
		c0.328-0.824,0.791-1.526,1.385-2.104c0.592-0.58,1.289-1.029,2.094-1.349c0.805-0.317,1.682-0.477,2.627-0.477h7.373v2.376h-7.373
		c-0.609,0-1.174,0.109-1.691,0.328c-0.52,0.219-0.965,0.52-1.338,0.908c-0.375,0.385-0.666,0.847-0.879,1.383
		s-0.316,1.128-0.316,1.776c0,0.636,0.104,1.229,0.316,1.777s0.504,1.02,0.879,1.411c0.373,0.396,0.818,0.703,1.338,0.929
		c0.518,0.224,1.082,0.336,1.691,0.336h5.818v-3.537h-6.135v-2h8.531v7.912H137.371L137.371,119.337z"/>
	<path fill="#FFFFFF" d="M147.869,121.546v-4.865h2.391l-0.934,4.865H147.869z"/>
	<path fill="#FFFFFF" d="M158.117,119.337v-13.599h2.377v11.224h9.146v2.375H158.117L158.117,119.337z"/>
	<path fill="#FFFFFF" d="M171.344,119.337v-13.599h2.375v11.224h9.148v2.375H171.344L171.344,119.337z"/>
	<path fill="#FFFFFF" d="M190.779,119.337c-0.949,0-1.824-0.177-2.629-0.531c-0.805-0.356-1.504-0.842-2.094-1.461
		c-0.594-0.616-1.055-1.35-1.387-2.196c-0.328-0.85-0.494-1.766-0.494-2.75c0-0.997,0.166-1.91,0.494-2.731
		c0.332-0.824,0.793-1.526,1.387-2.104c0.59-0.58,1.289-1.029,2.094-1.349c0.805-0.317,1.68-0.477,2.629-0.477h7.371v2.376h-7.371
		c-0.611,0-1.176,0.109-1.693,0.328s-0.963,0.52-1.338,0.908c-0.373,0.385-0.666,0.847-0.879,1.383
		c-0.211,0.536-0.318,1.128-0.318,1.776c0,0.636,0.107,1.229,0.318,1.777c0.213,0.548,0.506,1.02,0.879,1.411
		c0.375,0.394,0.82,0.703,1.338,0.929c0.518,0.224,1.082,0.336,1.693,0.336h7.371v2.375H190.779L190.779,119.337z"/>
</g>
<g>
	<g>
		<path fill="#FFFFFF" d="M18.212,5.441c-0.662,0.317-1.308,0.712-1.939,1.188c-0.631,0.475-1.191,1.068-1.68,1.781
			c-0.488,0.712-0.882,1.552-1.182,2.517c-0.3,0.967-0.449,2.068-0.449,3.304v22.331h5.487c1.418,0,2.608-0.482,3.57-1.449
			c0.962-0.966,1.442-2.162,1.442-3.587V19.269h5.131v17.294h5.534c0.694,0,1.34-0.135,1.939-0.404
			c0.599-0.269,1.119-0.625,1.561-1.069c0.441-0.444,0.796-0.975,1.064-1.592c0.268-0.617,0.402-1.274,0.402-1.972V4.207H23.462
			C21.477,4.301,19.726,4.712,18.212,5.441z M28.594,14.28h-5.131V9.195h5.131V14.28z M66.653,7.389
			c-0.697-0.727-1.466-1.307-2.304-1.733c-0.84-0.428-1.647-0.752-2.423-0.975c-0.776-0.221-1.465-0.355-2.066-0.403
			c-0.602-0.047-1.014-0.072-1.235-0.072H42.896v27.32c0,1.425,0.48,2.622,1.442,3.587c0.961,0.967,2.151,1.451,3.57,1.451h5.488
			V9.196h5.083v22.323c0,0.698,0.135,1.356,0.404,1.975c0.269,0.62,0.634,1.151,1.093,1.595c0.458,0.443,0.99,0.802,1.592,1.07
			c0.601,0.271,1.251,0.405,1.948,0.405h5.56V14.232c0-1.583-0.23-2.938-0.689-4.063C67.927,9.045,67.349,8.119,66.653,7.389z
			 M126.566,7.389c-0.697-0.727-1.465-1.307-2.305-1.733c-0.84-0.428-1.646-0.752-2.422-0.975c-0.777-0.221-1.465-0.355-2.066-0.403
			c-0.602-0.047-1.016-0.072-1.236-0.072h-15.726v27.32c0,1.425,0.479,2.622,1.442,3.587c0.961,0.967,2.15,1.451,3.57,1.451h5.488
			V9.196h5.082v22.323c0,0.698,0.135,1.356,0.402,1.975c0.27,0.62,0.635,1.151,1.094,1.595c0.459,0.443,0.99,0.802,1.592,1.07
			c0.602,0.271,1.25,0.405,1.947,0.405h5.559V14.232c0-1.583-0.23-2.938-0.689-4.063C127.842,9.045,127.262,8.119,126.566,7.389z
			 M78.127,5.441c-0.662,0.317-1.308,0.712-1.939,1.188c-0.631,0.475-1.191,1.068-1.679,1.781c-0.489,0.712-0.882,1.553-1.183,2.517
			c-0.299,0.967-0.449,2.068-0.449,3.304v22.331h5.487c1.419,0,2.609-0.482,3.571-1.449c0.961-0.966,1.442-2.162,1.442-3.587V19.269
			h5.131v17.294h5.534c0.693,0,1.341-0.135,1.94-0.404c0.599-0.269,1.119-0.625,1.561-1.069s0.797-0.975,1.064-1.592
			c0.268-0.617,0.403-1.274,0.403-1.972V4.207H83.376C81.391,4.301,79.64,4.712,78.127,5.441z M88.509,14.28h-5.131V9.195h5.131
			V14.28z M137.354,5.466c-0.66,0.318-1.301,0.714-1.91,1.19c-0.621,0.476-1.176,1.067-1.684,1.777
			c-0.506,0.715-0.904,1.553-1.209,2.52c-0.297,0.965-0.451,2.065-0.451,3.301v17.288c0,0.696,0.141,1.353,0.41,1.972
			c0.268,0.615,0.623,1.148,1.068,1.59c0.443,0.443,0.967,0.798,1.568,1.065c0.596,0.269,1.246,0.407,1.941,0.407h21.139V4.231
			h-15.625C140.646,4.328,138.895,4.741,137.354,5.466z M147.727,30.979H142.6V9.153h5.127V30.979z M186.508,10.928
			c-0.301-0.964-0.693-1.805-1.182-2.517c-0.488-0.713-1.049-1.306-1.68-1.781c-0.631-0.476-1.277-0.872-1.939-1.188
			c-1.512-0.729-3.264-1.141-5.25-1.235h-15.633v27.321c0,0.698,0.135,1.355,0.404,1.972c0.266,0.617,0.621,1.148,1.063,1.59
			c0.441,0.445,0.963,0.802,1.561,1.069c0.6,0.271,1.246,0.405,1.939,0.405h5.533V19.267h5.133v12.26
			c0,1.424,0.482,2.621,1.441,3.587c0.963,0.965,2.152,1.449,3.572,1.449h5.486V14.231
			C186.959,12.996,186.807,11.896,186.508,10.928z M176.457,14.28h-5.133V9.195h5.133V14.28z"/>
	</g>
</g>
<g>
	<g>
		<path fill="#FFFFFF" d="M87.281,52.835c-0.67,0.321-1.324,0.722-1.961,1.2c-0.638,0.48-1.204,1.083-1.699,1.802
			c-0.494,0.722-0.893,1.572-1.196,2.547c-0.303,0.979-0.454,2.091-0.454,3.342v22.587h15.715c1.442,0,2.651-0.484,3.63-1.45
			c0.976-0.969,1.466-2.167,1.466-3.596H92.592V66.818h10.189v-5.046H92.592v-5.142h10.189v-5.046H92.592
			C90.582,51.683,88.812,52.099,87.281,52.835z M35.871,53.436c-0.221-0.221-0.506-0.431-0.854-0.632
			c-0.35-0.202-0.726-0.387-1.13-0.552c-0.405-0.165-0.809-0.305-1.212-0.415c-0.405-0.109-0.771-0.165-1.103-0.165H11.118v16.871
			h15.051v13.121c-0.478-0.074-0.938-0.247-1.378-0.524c-0.441-0.274-0.836-0.605-1.186-0.992c-0.35-0.385-0.635-0.798-0.855-1.24
			c-0.221-0.44-0.331-0.881-0.331-1.323v-7.001H11.118v6.947c0,0.846,0.221,1.68,0.662,2.508c0.44,0.827,1.028,1.554,1.764,2.177
			c0.735,0.627,1.571,1.132,2.508,1.518c0.937,0.386,1.883,0.578,2.839,0.578h18.579V65.897h-15.05V54.431
			c0.955-0.074,1.819,0.201,2.591,0.825c0.772,0.625,1.158,1.359,1.158,2.205v6.616h11.302v-6.229c0-0.662-0.166-1.452-0.496-2.372
			C36.643,54.559,36.275,53.877,35.871,53.436z M48.065,52.835c-0.669,0.321-1.324,0.722-1.961,1.2
			c-0.638,0.48-1.204,1.083-1.699,1.802c-0.494,0.722-0.893,1.572-1.196,2.547c-0.304,0.979-0.455,2.091-0.455,3.342v22.587H58.47
			c1.441,0,2.651-0.484,3.628-1.45c0.977-0.969,1.466-2.167,1.466-3.596H53.376V56.631h10.188v-5.046H53.376
			C51.367,51.683,49.596,52.099,48.065,52.835z M70.806,54.035c-0.638,0.48-1.204,1.083-1.698,1.802
			c-0.495,0.722-0.893,1.572-1.196,2.547c-0.304,0.979-0.455,2.091-0.455,3.342v22.587h5.55c1.436,0,2.639-0.487,3.612-1.466
			c0.973-0.977,1.458-2.187,1.458-3.629V51.585c-2.008,0.096-3.78,0.513-5.31,1.249C72.098,53.156,71.443,53.557,70.806,54.035z
			 M130.701,54.806c-0.705-0.738-1.482-1.321-2.33-1.755c-0.85-0.433-1.666-0.76-2.451-0.985c-0.783-0.226-1.482-0.361-2.09-0.408
			s-1.025-0.072-1.248-0.072h-15.908v27.633c0,1.442,0.486,2.652,1.459,3.629c0.973,0.979,2.178,1.466,3.611,1.466h5.551V56.631
			h5.143V79.21c0,0.706,0.135,1.373,0.408,1.998c0.271,0.627,0.641,1.165,1.105,1.614c0.465,0.448,1,0.81,1.611,1.082
			c0.607,0.273,1.264,0.408,1.969,0.408h5.623V61.726c0-1.603-0.232-2.972-0.695-4.11C131.99,56.479,131.406,55.543,130.701,54.806z
			 M142.309,52.835c-0.672,0.321-1.324,0.722-1.963,1.2c-0.639,0.48-1.205,1.083-1.699,1.802c-0.494,0.722-0.893,1.572-1.195,2.547
			c-0.303,0.979-0.455,2.091-0.455,3.342v22.587h15.717c1.439,0,2.65-0.484,3.627-1.45c0.979-0.969,1.467-2.167,1.467-3.596h-10.188
			V56.631h10.188v-5.046h-10.188C145.609,51.683,143.838,52.099,142.309,52.835z M177.393,71.337v6.16
			c0,0.447-0.111,0.896-0.334,1.343c-0.104,0.198-0.215,0.394-0.34,0.582c-0.152,0.234-3.129,0.126-3.129,0.126V74.81l-0.006-7.981
			h9.348v-5.042h-9.352l-0.006-5.142h4.246v3.485h10.068V51.6h-15.146c-2.008,0.096-3.777,0.513-5.309,1.249
			c-0.67,0.321-1.322,0.721-1.961,1.202c-0.637,0.48-1.205,1.08-1.699,1.802c-0.494,0.718-0.893,1.568-1.193,2.545
			c-0.25,0.803-0.369,1.721-0.414,2.706l-0.041,0.021v23.194h18.846c0.971,0,1.93-0.195,2.881-0.588
			c0.951-0.394,1.801-0.903,2.545-1.536c0.746-0.636,1.342-1.372,1.789-2.213c0.447-0.837,0.67-1.684,0.67-2.543v-6.162
			L177.393,71.337z"/>
	</g>
</g>
</svg>
