<?xml version="1.0" encoding="utf-8"?>
<!-- Generator: Adobe Illustrator 16.0.0, SVG Export Plug-In . SVG Version: 6.00 Build 0)  -->
<!DOCTYPE svg PUBLIC "-//W3C//DTD SVG 1.1//EN" "http://www.w3.org/Graphics/SVG/1.1/DTD/svg11.dtd">
<svg version="1.1" id="Layer_1" xmlns="http://www.w3.org/2000/svg" xmlns:xlink="http://www.w3.org/1999/xlink" x="0px" y="0px"
	 width="184px" height="200px" viewBox="0 0 184 200" enable-background="new 0 0 184 200" xml:space="preserve">
<path fill="none" stroke="#91B4DF" stroke-width="2" stroke-linecap="round" stroke-linejoin="round" stroke-miterlimit="10" d="M115.734,85.573
	c0.002,0,0-0.032,0.002-0.032s0.1-0.115,0.102-0.115C115.92,85.427,115.652,85.573,115.734,85.573
	c-0.338,0.584-0.65,0.926-0.947,1.536c-5.123,7.495-13.723,12.456-23.486,12.456c-0.086,0-0.168,0.061-0.254,0.06
	c0.338-0.583,0.65-1.047,0.947-1.656C97.113,90.475,105.975,85.573,115.734,85.573z M114.787,111.917
	c-5.314-7.775-14.316-12.505-23.741-12.413c0.338,0.584,0.65,1.185,0.947,1.794c5.321,7.786,14.313,12.49,23.741,12.413
	C115.396,113.126,115.084,112.526,114.787,111.917C114.16,110.997,115.084,112.526,114.787,111.917z M91.993,101.298
	c-0.367-0.537-0.718-1.085-1.049-1.647c-0.331,0.562-0.681,1.111-1.048,1.647c-1.828,3.754-2.864,7.965-2.864,12.422
	c0,4.401,1.001,8.57,2.786,12.291c0.398,0.575,0.774,1.166,1.129,1.771c0.341-0.582,0.707-1.147,1.088-1.703
	c1.808-3.738,2.819-7.931,2.819-12.36C94.855,109.263,93.821,105.052,91.993,101.298z M89.819,69.115
	c0.397,0.574,0.771,1.346,1.125,1.949c0.354-0.604,0.729-1.376,1.126-1.949c1.785-3.721,2.785-7.889,2.785-12.291
	c0-4.457-1.034-8.669-2.863-12.423c-0.367-0.537-0.717-1.309-1.048-1.872c-0.33,0.562-0.68,1.334-1.047,1.871
	c-1.829,3.754-2.864,7.967-2.864,12.423C87.033,61.226,88.035,65.394,89.819,69.115z M67.812,83.471
	c1.828-3.754,2.864-7.966,2.864-12.423c0-4.403-1-8.57-2.786-12.291c-0.398-0.575-0.666-1.343-1.021-1.949
	c-0.343,0.583-0.817,1.327-1.2,1.883c-1.806,3.737-2.817,7.929-2.817,12.357c0,4.457,1.036,8.668,2.865,12.423
	c0.366,0.536,0.717,1.085,1.047,1.646C67.095,84.555,67.445,84.007,67.812,83.471z M67.812,83.471
	c-0.296,0.608-0.607,1.206-0.945,1.79c9.52-0.15,17.9-4.973,22.953-12.279c0.314-0.655,0.659-1.292,1.021-1.917
	C81.267,71.217,72.853,76.095,67.812,83.471z M90.842,71.037c-0.362-0.628-0.708-1.267-1.023-1.922
	c-5.052-7.307-13.43-12.154-22.95-12.306c0.363,0.627,0.707,1.292,1.022,1.949C72.942,66.063,81.322,70.886,90.842,71.037z
	 M91.992,44.401c5.121,7.494,14.186,12.432,23.945,12.434 M65.671,115.585c0.306-0.635,0.642-1.252,0.993-1.859
	c-0.085-0.001-0.169-0.006-0.255-0.006c-9.709,0-18.278,4.867-23.41,12.291c-0.315,0.656-0.662,1.295-1.024,1.924
	c0.085,0.001,0.168,0.009,0.253,0.009C51.963,127.943,60.543,123.043,65.671,115.585z M66.408,113.72
	c0.086,0,0.169-0.008,0.255-0.009c-0.337-0.584-0.65-1.183-0.946-1.793c-5.122-7.496-13.725-12.423-23.489-12.423
	c-0.085,0-0.169,0.007-0.255,0.008c0.338,0.584,0.651,1.185,0.948,1.793C48.043,108.792,56.645,113.72,66.408,113.72z
	 M66.403,142.183c-4.736-6.502-14.763-14.239-24.786-14.239c-0.09,0,0.131,0.005,0.04,0.007c-0.032,0.053,0.093,0.107,0.061,0.161
	c5.103,8.417,13.362,14.071,24.16,14.071c0.089,0-0.907-0.006-0.907-0.007S66.403,142.183,66.403,142.183z M40.747,72.981
	c-1.785,3.72-2.786,7.889-2.786,12.291c0,4.456,1.036,8.667,2.863,12.421 M139.928,71.037c0.029-0.052,0.059-0.105,0.088-0.158
	c-4.869-8.284-13.809-13.881-24.076-14.044c0.363,0.628,0.707,1.265,1.021,1.921C122.016,66.067,130.402,70.89,139.928,71.037z
	 M138.84,73.252c-1.785,3.721-2.76,7.753-2.76,12.156c0,4.456,1.047,8.598,2.873,12.351c0.369,0.538,0.727,1.052,1.057,1.616
	c0.33-0.562,0.684-1.127,1.051-1.664c1.828-3.754,2.814-7.703,2.814-12.159c0-5.179-1.016-10.22-3.859-14.488l0,0
	C139.482,72.044,139.066,72.623,138.84,73.252z M116.93,140.302c-0.307,0.633-0.641,1.248-0.992,1.854
	c10.27-0.164,18.508-4.06,24.17-12.238c-0.031-0.051,1.049-1.342,1.02-1.391C131.576,128.673,121.979,132.957,116.93,140.302z
	 M91.993,97.693c1.828-3.754,2.862-7.965,2.862-12.421c0-4.402-1-8.57-2.785-12.291c-0.397-0.573-0.771-1.163-1.126-1.765
	c-0.354,0.603-0.729,1.192-1.125,1.765c-1.785,3.72-2.786,7.888-2.786,12.291c0,4.456,1.036,8.667,2.863,12.421
	c0.368,0.537,0.718,1.303,1.049,1.865C91.275,98.996,91.626,98.229,91.993,97.693z M41.974,127.935
	c1.785-3.721,3.81-9.672,3.81-14.074c0-4.457-1.035-8.738-2.863-12.492c-0.367-0.537-0.718-1.121-1.048-1.682
	c-0.33,0.563-0.682,1.093-1.049,1.629 M40.824,101.299c-1.827,3.753-2.862,7.964-2.862,12.421c0,5.177,1.39,10.025,3.806,14.209
	 M89.898,44.401c0.296-0.608,0.71-1.289,1.047-1.871c-9.55,0.152-18.058,5.084-23.104,12.431c-0.304,0.628-0.624,1.247-0.972,1.849
	C76.442,56.656,84.857,51.778,89.898,44.401z M42.921,97.692c5.122-7.492,13.72-12.417,23.481-12.42
	c-9.707-0.002-19.398-6.634-24.53-14.057 M41.873,71.215c9.732,0,18.524-4.761,23.65-12.217c0.307-0.634,0.885-1.405,1.237-2.013
	c-0.084-0.001,0.193-0.177,0.109-0.177c-0.002,0,0.002,0,0,0c-0.002,0,0,0.027-0.001,0.027c-9.707,0-18.737,5.134-23.869,12.555
	C42.683,70.048,42.236,70.587,41.873,71.215C41.957,71.216,41.789,71.215,41.873,71.215C41.875,71.215,41.871,71.215,41.873,71.215
	C41.874,71.215,41.871,71.215,41.873,71.215z M115.938,56.836C115.855,56.835,116.021,56.836,115.938,56.836
	C115.938,56.836,115.941,56.836,115.938,56.836C115.936,56.836,115.939,56.836,115.938,56.836c-9.705,0-18.297,3.891-23.429,11.312
	c-0.316,0.658-1.1,1.968-1.464,2.596c0.083,0,0.166,0.145,0.25,0.145 M90.944,71.215c9.706-0.002,19.759-6.801,24.892-14.224
	 M115.836,56.992c-0.363-0.629-0.811-1.03-1.127-1.687C105.455,41.919,88.71,42.53,90.944,42.53 M70.676,127.943
	c0-4.458-1.036-8.669-2.864-12.424c-0.367-0.536-0.717-1.084-1.047-1.646c-0.6,1.022-1.225,1.959-1.689,3.057
	c-0.494,1.168-0.91,2.371-1.239,3.596c-0.651,2.409-0.983,4.922-0.983,7.418c0,2.495,0.332,5.006,0.982,7.414
	c0.306,1.134,0.683,2.248,1.13,3.333c0.491,1.19,1.15,2.206,1.799,3.308c0.354-0.602,0.729-1.191,1.126-1.764
	C69.675,136.514,70.676,132.345,70.676,127.943z M67.89,144.1c5.188,7.499,13.836,12.135,22.953,12.28
	c0.002,0.004,0.004,0.008,0.006,0.012c-0.003,0.004-0.006,0.01-0.008,0.016 M65.716,84.313
	c-5.121-7.494-13.583-12.817-23.346-12.817 M90.944,99.65c-0.336-0.582-0.753-1.35-1.049-1.958
	C84.854,90.317,76.44,85.44,66.869,85.288c0.336,0.58,0.647,1.178,0.942,1.785C72.853,94.449,81.372,99.497,90.944,99.65z
	 M90.839,127.929c-0.361-0.627-0.706-1.263-1.021-1.918c-5.052-7.307-13.433-12.129-22.952-12.279
	c0.337,0.582,0.648,1.181,0.944,1.789C72.853,122.896,81.267,127.774,90.839,127.929z M66.87,142.183
	c0.609,1.053,1.129,2.097,1.87,3.069c0.732,0.96,1.526,1.87,2.376,2.728c1.701,1.715,3.623,3.214,5.699,4.445
	c4.238,2.517,9.1,3.871,14.025,3.949c-0.337-0.58-0.647-1.178-0.943-1.785C84.857,147.213,76.442,142.335,66.87,142.183
	C67.219,142.787,76.442,142.335,66.87,142.183z M89.538,128.003c-4.643,0.284-9.19,1.719-13.148,4.164
	c-1.914,1.182-3.689,2.591-5.274,4.188c-0.79,0.797-1.533,1.639-2.22,2.523c-0.806,1.039-1.374,2.146-2.029,3.277
	c9.551-0.15,17.957-5.004,23.004-12.352c0.303-0.626,0.623-1.244,0.97-1.845C90.405,127.966,89.968,127.977,89.538,128.003z
	 M89.897,101.298c0.295-0.607,0.712-1.065,1.048-1.647c-0.562,0.01-1.101-0.121-1.665-0.076c-0.599,0.046-1.195,0.108-1.79,0.183
	c-1.22,0.15-2.424,0.402-3.609,0.723c-2.401,0.648-4.716,1.614-6.864,2.866c-2.083,1.204-4.01,2.687-5.719,4.38
	c-0.866,0.857-1.678,1.77-2.426,2.734c-0.799,1.031-1.355,2.122-2.004,3.246C76.441,113.55,84.855,108.674,89.897,101.298
	C90.192,100.69,84.855,108.674,89.897,101.298z M114.787,87.074c-1.828,3.753-2.861,7.964-2.861,12.421
	c0,4.432,1.025,8.623,2.834,12.361c0.377,0.551,0.736,1.117,1.078,1.695c0.338-0.578,0.695-1.144,1.074-1.695
	c1.809-3.738,2.836-7.928,2.836-12.361c0-4.457-1.037-8.668-2.861-12.421c-0.369-0.537-0.721-1.085-1.049-1.647
	C115.506,85.989,115.154,86.537,114.787,87.074z M114.74,115.585c0.309-0.633,0.643-1.25,0.994-1.857
	c-0.086,0-0.168-0.008-0.254-0.008c-9.734,0-18.316,4.9-23.444,12.361c-0.306,0.633-0.639,1.248-0.991,1.854
	c0.086,0.001,0.169,0.009,0.254,0.009C101.035,127.943,109.615,123.043,114.74,115.585z M67.84,111.856
	c1.81-3.738,2.836-7.928,2.836-12.361c0-4.458-1.036-8.669-2.864-12.423c-0.367-0.536-0.717-1.084-1.047-1.646
	c-0.33,0.562-0.682,1.11-1.047,1.646c-1.83,3.754-2.865,7.966-2.865,12.422c0,4.457,1.035,8.669,2.865,12.424
	c0.365,0.534,0.714,1.08,1.043,1.641C67.102,112.979,67.46,112.409,67.84,111.856z M42.228,99.496
	c9.764,0,18.367-4.928,23.489-12.423 M45.784,85.272c0-4.402-1-8.57-2.786-12.291c-0.397-0.573-0.771-1.163-1.125-1.765
	c-0.354,0.603-0.729,1.192-1.126,1.765c-1.785,3.72-2.786,7.889-2.786,12.291c0,4.456,1.036,8.667,2.863,12.421
	c0.367,0.537,0.718,1.085,1.049,1.646c0.33-0.563,0.681-1.112,1.049-1.648C44.749,93.938,45.784,89.727,45.784,85.272z
	 M93.574,156.292c4.553-0.363,8.988-1.824,12.854-4.26c1.904-1.199,3.668-2.625,5.236-4.236c0.793-0.814,1.533-1.674,2.223-2.576
	c0.734-0.966,1.244-1.998,1.848-3.045c-9.428-0.075-18.422,4.628-23.742,12.416c-0.296,0.607-0.608,1.207-0.946,1.792
	C91.892,156.39,92.73,156.357,93.574,156.292C94.01,156.257,93.404,156.306,93.574,156.292z M118.236,137.09
	c1.299-3.818,1.754-7.897,1.369-11.909c-0.191-1.998-0.596-3.968-1.203-5.881c-0.309-0.967-0.67-1.916-1.082-2.845
	c-0.41-0.919-0.977-1.716-1.482-2.581c-0.602,1.021-1.227,1.958-1.689,3.055c-0.494,1.169-0.912,2.372-1.242,3.598
	c-0.65,2.41-0.98,4.921-0.98,7.417c0,2.495,0.33,5.006,0.98,7.415c0.307,1.132,0.684,2.247,1.131,3.332
	c0.49,1.192,1.152,2.209,1.801,3.316c0.463-0.785,0.998-1.511,1.375-2.34C117.598,138.824,117.938,137.965,118.236,137.09
	C118.406,136.588,118.215,137.149,118.236,137.09z M138.609,99.555c-4.643,0.282-9.195,1.72-13.152,4.167
	c-1.912,1.18-3.688,2.588-5.268,4.185c-0.801,0.806-1.555,1.659-2.248,2.558c-0.799,1.029-1.354,2.119-2,3.24
	c9.572-0.154,17.986-5.03,23.025-12.406c0.297-0.607,0.609-1.205,0.945-1.786C139.475,99.518,139.039,99.529,138.609,99.555
	C138.439,99.566,139.039,99.529,138.609,99.555z M115.941,113.734c0.348,0.605,0.682,1.22,0.988,1.851
	c5.045,7.34,14.18,12.019,24.197,12.941c-0.348-0.605-2.113-2.428-2.418-3.061C133.662,118.128,125.484,113.888,115.941,113.734z
	 M92.07,129.876c-0.397-0.574-0.771-1.162-1.125-1.765c-0.34,0.577-0.696,1.143-1.074,1.692c-1.812,3.74-2.837,7.93-2.837,12.363
	c0,4.458,1.036,8.669,2.864,12.424c0.367,0.535,0.718,1.084,1.047,1.646c0.331-0.563,0.681-1.111,1.048-1.646
	c1.829-3.754,2.863-7.966,2.863-12.424C94.855,137.765,93.855,133.597,92.07,129.876z M115.923,141.927
	c0.007-0.02-2.659-3.552-3.006-4.01c-2.182-2.88-4.472-4.274-7.621-6.107c-4.406-2.564-9.345-3.891-14.439-3.848
	c0.363,0.627,0.766,1.268,1.081,1.924c5.244,7.585,14.666,12.279,23.923,12.279c0.08,0,0,0,0,0 M116.885,83.469
	c-0.297,0.608-0.609,1.208-0.947,1.792c9.521-0.15,17.902-4.973,22.953-12.279c0.504-0.639,0.658-1.292,1.02-1.917
	C130.34,71.217,121.926,76.093,116.885,83.469z M115.836,85.427c0.336,0.582,0.752,1.041,1.049,1.647
	c5.041,7.376,12.107,11.398,23.027,12.405c-0.338-0.582-0.648-1.18-0.945-1.788C133.926,90.317,125.406,85.58,115.836,85.427z
	 M111.924,71.048c0,4.456,1.035,8.667,2.863,12.42c0.367,0.537,0.717,1.396,1.049,1.958c0.33-0.563,0.682-1.421,1.049-1.958
	c1.826-3.753,2.861-7.964,2.861-12.42c0-4.403-1-8.57-2.785-12.291c-0.396-0.573-0.771-1.163-1.125-1.765
	c-0.355,0.604-0.73,1.192-1.127,1.765C112.926,62.478,111.924,66.646,111.924,71.048z M114.375,82.372
	c-5.133-7.422-13.725-11.313-23.43-11.313 M91.048,71.215c5.132,7.422,15.185,14.222,24.89,14.224 M139.207,102.448
	c-1.678,3.771-2.535,7.829-2.41,12.229c0.129,4.455,1.295,8.566,3.229,12.266c0.385,0.525,0.756,1.029,1.102,1.584
	c0.313-0.572,0.652-1.146,1.002-1.693c1.719-3.806,2.594-7.779,2.467-12.234c-0.15-5.179-1.619-11.04-4.586-15.224l0.311,0.852
	C139.816,101.222,139.416,101.813,139.207,102.448z"/>
<path id="_x31_st_ring_2_" fill="none" stroke="#91B4DF" stroke-width="5.6895" stroke-linecap="round" stroke-linejoin="round" d="
	M146.752,137.809c-7.461,10.805-18.072,19.26-30.182,24.088c-12.689,5.053-26.848,6.061-40.119,2.896
	c-12.767-3.049-24.529-9.945-33.476-19.662c-8.94-9.707-14.915-22.068-16.871-35.198c-2.012-13.471,0.171-27.438,6.238-39.604
	C38.189,58.588,47.512,48.75,58.8,42.256c11.769-6.774,25.481-9.744,38.964-8.577c13.244,1.153,26.002,6.335,36.328,14.803
	c10.113,8.281,17.729,19.553,21.549,32.166c1.906,6.263,2.574,12.822,2.867,19.367C159.004,111.272,154.375,126.775,146.752,137.809
	z"/>
<path id="_x32_nd_ring_2_" fill="none" stroke="#91B4DF" stroke-width="2" stroke-miterlimit="10" d="M41.675,42.585
	c-7.623,0-15.066,3.115-20.418,8.547c-5.301,5.379-8.304,12.803-8.239,20.368c0.043,5.115,1.455,10.124,4.084,14.486
	c0.033,0.055,0.034,0.125,0.002,0.181c-4.906,8.719-4.871,19.538,0.093,28.233c0.032,0.056,0.031,0.125-0.001,0.182
	c-4.016,6.845-4.981,15.475-2.586,23.082c2.22,7.049,7.243,13.107,13.776,16.621c4.134,2.231,8.824,3.41,13.562,3.41h0.188
	c0.064,0,0.123,0.034,0.156,0.09c5.115,8.748,14.594,14.185,24.738,14.185h0.158c0.064,0,0.124,0.034,0.156,0.089
	c3.882,6.701,10.411,11.605,17.911,13.455c2.219,0.549,4.517,0.826,6.829,0.826c5.399,0,10.64-1.483,15.157-4.287
	c4.049-2.512,7.43-6.012,9.781-10.121c0.031-0.057,0.09-0.09,0.154-0.09c10.113-0.059,19.547-5.517,24.623-14.244
	c0.033-0.056,0.092-0.09,0.156-0.09h0.287c7.623,0,15.066-3.113,20.42-8.547c5.299-5.385,8.303-12.811,8.238-20.367
	c-0.045-5.074-1.438-10.057-4.033-14.408c-0.033-0.055-0.035-0.124-0.002-0.18c2.348-4.182,4.807-19.54-0.086-28.134
	c-0.033-0.057-0.033-0.126,0-0.181c4.045-6.861,5.025-15.513,2.623-23.141c-2.223-7.049-7.242-13.107-13.777-16.621
	c-4.135-2.231-8.824-3.41-13.563-3.41h-0.113c-0.066,0-0.127-0.035-0.156-0.091c-5.102-8.911-14.639-14.45-24.891-14.457
	c-0.064,0-0.125-0.034-0.156-0.089c-3.959-6.737-10.549-11.628-18.08-13.419c-2.15-0.513-4.374-0.773-6.609-0.773
	c-5.475,0-10.781,1.523-15.343,4.404c-3.932,2.485-7.239,5.929-9.565,9.959c-0.032,0.055-0.091,0.09-0.157,0.09
	c-10.168,0.007-19.673,5.505-24.802,14.35c-0.032,0.056-0.091,0.09-0.156,0.09L41.675,42.585L41.675,42.585z"/>
<path id="_x33_rd_ring_2_" fill="none" stroke="#91B4DF" stroke-width="4" stroke-miterlimit="10" d="M92.097,194.813
	c-2.57,0-5.126-0.307-7.595-0.912c-8.304-2.04-15.534-7.43-19.858-14.801h-0.061c-11.241,0-21.748-5.978-27.448-15.611h-0.094
	c-5.269,0-10.483-1.305-15.081-3.776c-7.266-3.892-12.848-10.599-15.319-18.405c-2.652-8.389-1.598-17.898,2.818-25.464
	c-5.446-9.579-5.484-21.46-0.104-31.065C6.472,79.97,4.922,74.461,4.875,68.834c-0.072-8.377,3.267-16.597,9.161-22.554
	c5.952-6.015,14.227-9.465,22.703-9.465h0.282c5.696-9.702,16.18-15.743,27.406-15.792c2.584-4.42,6.24-8.197,10.578-10.929
	c5.073-3.19,10.972-4.877,17.06-4.877c2.485,0,4.958,0.289,7.351,0.855c8.338,1.976,15.639,7.353,20.047,14.762
	c11.318,0.048,21.838,6.134,27.504,15.91h0.016c5.266,0,10.479,1.305,15.078,3.775c7.266,3.893,12.848,10.601,15.32,18.405
	c2.658,8.412,1.588,17.945-2.859,25.528c5.328,9.467,2.678,26.2,0.094,30.956c2.85,4.796,4.381,10.275,4.428,15.855
	c0.072,8.369-3.268,16.59-9.162,22.555c-5.953,6.016-14.229,9.465-22.703,9.465h-0.205c-5.637,9.574-16.043,15.57-27.205,15.674
	c-2.615,4.507-6.352,8.347-10.818,11.111C103.926,193.173,98.098,194.813,92.097,194.813z"/>
</svg>
