<?xml version="1.0" encoding="utf-8"?>
<!-- Generator: Adobe Illustrator 16.0.0, SVG Export Plug-In . SVG Version: 6.00 Build 0)  -->
<!DOCTYPE svg PUBLIC "-//W3C//DTD SVG 1.1//EN" "http://www.w3.org/Graphics/SVG/1.1/DTD/svg11.dtd">
<svg version="1.1" xmlns="http://www.w3.org/2000/svg" xmlns:xlink="http://www.w3.org/1999/xlink" x="0px" y="0px" width="32px"
	 height="32px" viewBox="0 0 32 32" enable-background="new 0 0 32 32" xml:space="preserve">
<g id="bg">
	<rect width="32" height="32"/>
</g>
<g id="Layer_1">
	<g>
		<g>
			<path fill="#91B4DF" d="M1.688,24.922V7.385h4.144v1.21H3.3v15.116h2.531v1.211H1.688z"/>
		</g>
		<g>
			<path fill="#91B4DF" d="M26.875,24.922v-1.211h2.531V8.595h-2.531v-1.21h4.144v17.537H26.875z"/>
		</g>
	</g>
	<g>
		<path fill="#91B4DF" d="M12.215,22.68L9.25,16.415c-0.234-0.495-0.426-0.941-0.574-1.34H8.653c0.023,0.64,0.035,1.358,0.035,2.155
			v5.45H6.344V9.697h2.391l2.842,5.958c0.035,0.078,0.078,0.172,0.129,0.28c0.051,0.109,0.102,0.221,0.152,0.335
			c0.051,0.115,0.099,0.227,0.144,0.335c0.045,0.108,0.079,0.205,0.103,0.29h0.023c-0.023-0.266-0.035-0.724-0.035-1.376V9.697
			h2.344V22.68H12.215z"/>
		<path fill="#91B4DF" d="M23.781,22.68v-7.116c0-0.67,0.014-1.406,0.041-2.209l0.018,0.083h-0.07
			c-0.125,1.02-1.523,9.242-1.523,9.242h-2.379c0,0-1.422-7.962-1.57-9.242h-0.07c0.055,2.028,0.082,2.615,0.082,3.122v6.12h-2.22
			V9.697h3.791c0,0,1.336,8.721,1.348,8.963h0.035c0.043-0.549,1.283-8.963,1.283-8.963h3.732V22.68H23.781z"/>
	</g>
	<g display="none">
		<path display="inline" fill="#91B4DF" d="M30.69,7.363v17.559h-5.026v-1.211h2.53V8.573h-2.53v-1.21H30.69z"/>
	</g>
</g>
</svg>
